<svg width="90" height="90" xmlns="http://www.w3.org/2000/svg">
 <!-- Created with Method Draw - http://github.com/duopixel/Method-Draw/ -->

 <g id="Layer_1">
  <title>Layer 1</title>
  <g stroke="null" id="svg_42">
   <g stroke="null" id="svg_13">
    <g stroke="null" transform="matrix(1.08618 0 0 1.09572 -37.9545 -42.5931)" fill="none" id="svg_6">
     <path stroke="null" fill="#7f8c8d" d="m83.74871,64.70896l-4,0c-0.55228,0 -1,-0.44772 -1,-1s0.44772,-1 1,-1l4,0c0.55228,0 1,0.44772 1,1s-0.44772,1 -1,1z" id="svg_10"/>
     <path stroke="null" fill="#7f8c8d" d="m61.74871,64.70896l-4,0c-0.55228,0 -1,-0.44772 -1,-1s0.44772,-1 1,-1l4,0c0.55228,0 1,0.44772 1,1s-0.44772,1 -1,1z" id="svg_7"/>
     <path stroke="null" fill="#fb7b76" d="m76.74871,75.70896s3,-7 3,-13c0,-3 -3,-7 -9,-7s-9,4 -9,7c0,6 3,13 3,13l6,2l6,-2z" id="Shape"/>
     <path stroke="null" fill="#df4d60" d="m67.03871,71.41896c-0.39212,-0.39212 -0.39212,-1.02788 0,-1.42s1.02788,-0.39212 1.42,0c1.38232,0.95069 3.20768,0.95069 4.59,0c0.39004,-0.38772 1.01996,-0.38772 1.41,0c0.38114,0.38884 0.38114,1.01116 0,1.4c-1.71,1.74 -5.71,1.74 -7.42,0.02z" id="Shape"/>
     <circle stroke="null" r="4" fill="#fff" cy="63.70896" cx="70.74871" id="svg_9"/>
     <circle stroke="null" r="1" fill="#464f5d" cy="63.70896" cx="70.74871" id="svg_8"/>
     <g stroke="null" id="svg_12" fill="#fb7b76">
      <circle stroke="null" r="2" cy="63.70896" cx="85.74871" id="Oval"/>
      <circle stroke="null" r="2" cy="63.70896" cx="55.74871" id="Oval"/>
      <path stroke="null" d="m57.99871,79.70896c-6.66,3.12 -10.49,9 -8.88,17.43c0.05525,0.31358 0.31518,0.55035 0.63253,0.57621c0.31736,0.02586 0.61218,-0.16572 0.71747,-0.46621c1.23,-3.6 3.88,-10.73 8.67,-13l2.61,-2.54l-3.75,-2z" id="Shape"/>
      <path stroke="null" d="m83.49871,79.70896c6.66,3.13 10.49,9 8.88,17.44c-0.05525,0.31358 -0.31518,0.55035 -0.63253,0.57621c-0.31736,0.02586 -0.61218,-0.16572 -0.71747,-0.46621c-1.23,-3.6 -3.88,-10.73 -8.67,-13l-1.61,-2.55l2.75,-2z" id="Shape"/>
     </g>
     <path stroke="null" fill="#df4d60" d="m106.74871,107.35896c0.02672,0.11881 -0.02641,0.24127 -0.13144,0.30292c-0.10502,0.06164 -0.23785,0.04834 -0.32856,-0.03292c-1.71304,-1.79286 -4.06155,-2.84143 -6.54,-2.92c-5,0 -10,9 -22,9s-14,-8 -14,-14l8,-3l6,3s0,6 7,6c6,0 7,-6 14,-6c4.28,0 7,3.59 8,7.65z" id="Shape"/>
     <path stroke="null" fill="#c03a2b" d="m78.74871,98.70896c0.04088,-3.84653 -0.43675,-7.68103 -1.42,-11.4c-0.09247,-0.33304 -0.0064,-0.69022 0.22762,-0.94459s0.5828,-0.36986 0.92238,-0.30541l2.34,0.46c0.52188,0.10082 1.03145,-0.22424 1.16,-0.74l1.56,-6.24c0.1245,-0.4772 -0.11749,-0.97391 -0.57,-1.17l-6.22,-2.66l-12,0l-6.22,2.66c-0.45251,0.19609 -0.6945,0.6928 -0.57,1.17l1.56,6.24c0.12855,0.51576 0.63812,0.84082 1.16,0.74l2.34,-0.46c0.33958,-0.06445 0.68836,0.05104 0.92238,0.30541s0.32009,0.61155 0.22762,0.94459c-0.98325,3.71897 -1.46088,7.55347 -1.42,11.4c0,0.55228 0.44772,1 1,1l14,0c0.55228,0 1,-0.44772 1,-1z" id="Shape"/>
     <path stroke="null" fill="#f3d55b" d="m69.74871,93.70896c-0.38249,-0.00176 -0.73048,-0.22154 -0.89641,-0.56617s-0.12074,-0.75373 0.11641,-1.05383l2.7,-3.38l-3.92,0c-0.38249,-0.00176 -0.73048,-0.22154 -0.89641,-0.56617s-0.12074,-0.75373 0.11641,-1.05383l4,-5c0.16522,-0.20898 0.407,-0.3434 0.6717,-0.37344s0.53046,0.04679 0.7383,0.21344c0.42574,0.34642 0.49268,0.97125 0.15,1.4l-2.7,3.38l3.92,0c0.38249,0.00176 0.73048,0.22154 0.89641,0.56617s0.12074,0.75373 -0.11641,1.05383l-4,5c-0.18865,0.23874 -0.47573,0.3786 -0.78,0.38z" id="Shape"/>
    </g>
   </g>
   <g stroke="null" id="svg_41">
    <path stroke="null" id="svg_18" fill="#64798A" d="m25.75917,33.40492c-2.82525,-2.92617 -4.38097,-6.67301 -4.38097,-10.55046c0,-9.17582 7.32009,-16.09529 17.02686,-16.09529c9.88182,0 17.62252,7.04677 17.62252,16.04308c0,3.77963 -1.44449,7.00531 -4.54558,10.15252l-1.71854,-1.36396c2.70914,-2.74796 3.9708,-5.54084 3.9708,-8.78855c0,-7.84196 -6.73333,-13.98505 -15.32919,-13.98505c-8.39959,0 -14.73353,6.0346 -14.73353,14.03733c0,3.38238 1.3568,6.65021 3.82107,9.20254l-1.73343,1.34784z"/>
    <path stroke="null" id="svg_19" fill="#27A2DB" d="m28.81475,21.76943l0,0c2.20811,0 4.01469,1.62117 4.01469,3.60266l0,8.47346c0,1.98149 -1.80658,3.60266 -4.01469,3.60266l0,0"/>
    <path stroke="null" id="svg_20" fill="#DC8744" d="m26.7271,37.44828l2.18398,0l0,-15.67885l-1.89026,0c-0.16222,0 -0.29372,0.11801 -0.29372,0.26358l0,15.41527z"/>
    <path stroke="null" id="svg_21" fill="#FCD462" d="m26.7271,33.94958l-2.14077,0c-0.16222,0 -0.29372,-0.11801 -0.29372,-0.26358l0,-8.13678c0,-0.14557 0.1315,-0.26358 0.29372,-0.26358l2.14086,0l0,8.66394l-0.00009,0z"/>
    <path stroke="null" id="svg_22" fill="#27A2DB" d="m48.535,21.76943l0,0c-2.20811,0 -4.01469,1.62117 -4.01469,3.60266l0,8.47346c0,1.98149 1.80658,3.60266 4.01469,3.60266l0,0"/>
    <path stroke="null" id="svg_23" fill="#DC8744" d="m50.32892,37.44828l-1.89026,0l0,-15.67885l1.89026,0c0.16222,0 0.29372,0.11801 0.29372,0.26358l0,15.15161c0,0.14565 -0.1315,0.26366 -0.29372,0.26366z"/>
    <path stroke="null" id="svg_24" fill="#FCD462" d="m50.62264,33.94958l2.14086,0c0.16222,0 0.29372,-0.11801 0.29372,-0.26358l0,-8.13678c0,-0.14557 -0.1315,-0.26358 -0.29372,-0.26358l-2.14086,0l0,8.66394z"/>
    <path stroke="null" id="svg_25" fill="#DC8744" d="m54.28072,13.87204c-3.28034,-4.87042 -9.17578,-7.87205 -15.54249,-7.87205c-6.46185,0 -12.38562,3.00555 -15.61761,7.88319c-0.18327,0.27663 -0.06477,0.63703 0.25,0.7912l2.6786,1.31183c0.30365,0.14872 0.67634,0.04906 0.85602,-0.21628c2.46821,-3.64511 6.94526,-5.88726 11.83308,-5.88726c4.80782,0 9.2634,2.24768 11.77498,5.90254c0.18173,0.26435 0.55554,0.36147 0.85807,0.21045l2.66645,-1.33087c0.31323,-0.15632 0.42839,-0.51733 0.2429,-0.79273z"/>
    <g stroke="null" transform="matrix(0.0855591 0 0 0.0767781 -4.37494 0.289911)" id="svg_26"/>
    <g stroke="null" transform="matrix(0.0855591 0 0 0.0767781 -4.37494 0.289911)" id="svg_27"/>
    <g stroke="null" transform="matrix(0.0855591 0 0 0.0767781 -4.37494 0.289911)" id="svg_28"/>
    <g stroke="null" transform="matrix(0.0855591 0 0 0.0767781 -4.37494 0.289911)" id="svg_29"/>
    <g stroke="null" transform="matrix(0.0855591 0 0 0.0767781 -4.37494 0.289911)" id="svg_30"/>
    <g stroke="null" transform="matrix(0.0855591 0 0 0.0767781 -4.37494 0.289911)" id="svg_31"/>
    <g stroke="null" transform="matrix(0.0855591 0 0 0.0767781 -4.37494 0.289911)" id="svg_32"/>
    <g stroke="null" transform="matrix(0.0855591 0 0 0.0767781 -4.37494 0.289911)" id="svg_33"/>
    <g stroke="null" transform="matrix(0.0855591 0 0 0.0767781 -4.37494 0.289911)" id="svg_34"/>
    <g stroke="null" transform="matrix(0.0855591 0 0 0.0767781 -4.37494 0.289911)" id="svg_35"/>
    <g stroke="null" transform="matrix(0.0855591 0 0 0.0767781 -4.37494 0.289911)" id="svg_36"/>
    <g stroke="null" transform="matrix(0.0855591 0 0 0.0767781 -4.37494 0.289911)" id="svg_37"/>
    <g stroke="null" transform="matrix(0.0855591 0 0 0.0767781 -4.37494 0.289911)" id="svg_38"/>
    <g stroke="null" transform="matrix(0.0855591 0 0 0.0767781 -4.37494 0.289911)" id="svg_39"/>
    <g stroke="null" transform="matrix(0.0855591 0 0 0.0767781 -4.37494 0.289911)" id="svg_40"/>
   </g>
  </g>
 </g>
</svg>