<svg height="75" viewBox="0 0 64 64" width="75" xmlns="http://www.w3.org/2000/svg"><g id="monster-2" data-name="monster"><path d="m61 53a8 8 0 0 1 -8 8h-6.18a2.772 2.772 0 0 0 .18-1 3 3 0 0 0 -6 0 2.772 2.772 0 0 0 .18 1h-14.26a6.991 6.991 0 0 0 -13.84 0h-2.08a8 8 0 1 1 0-16 3 3 0 0 0 3-3v-3.35a5.99 5.99 0 0 0 0-11.3v-6.35a16.688 16.688 0 0 1 .13-2.13 12.864 12.864 0 0 0 1.87.13 14 14 0 0 0 14-14 12.864 12.864 0 0 0 -.13-1.87 18.384 18.384 0 0 1 2.79-.12 17.307 17.307 0 0 1 8.63 2.64 5 5 0 0 0 3.71 8.35 4.934 4.934 0 0 0 2.99-1 18.64 18.64 0 0 1 2.01 8.43v7.82a12.008 12.008 0 0 0 10.58 21.21 7.912 7.912 0 0 1 .42 2.54z" fill="#ff6243"/><path d="m39.01 28.06a7 7 0 0 1 -14-.09 6.143 6.143 0 0 1 .08-.97h13.83a5.293 5.293 0 0 1 .09 1.06z" fill="#ffda44"/><path d="m29.97 43-2.97 5-3-5z" fill="#d80027"/><g fill="#ab2300"><path d="m47 60a2.772 2.772 0 0 1 -.18 1h-5.64a2.772 2.772 0 0 1 -.18-1 3 3 0 0 1 6 0z"/><path d="m26.92 61h-13.84a6.991 6.991 0 0 1 13.84 0z"/><path d="m14 27.35a5.99 5.99 0 0 1 0 11.3z"/><path d="m47.99 13a4.934 4.934 0 0 1 -2.99 1 5 5 0 0 1 -3.71-8.35 18.48 18.48 0 0 1 6.7 7.35z"/><path d="m29.87 3.13a12.864 12.864 0 0 1 .13 1.87 14 14 0 0 1 -14 14 12.864 12.864 0 0 1 -1.87-.13 18.012 18.012 0 0 1 15.74-15.74z"/><path d="m58.66 47.34a7.982 7.982 0 0 1 1.92 3.12 12.005 12.005 0 0 1 -10.58-21.21v12.75a3 3 0 0 0 3 3 8.014 8.014 0 0 1 5.66 2.34z"/></g><path d="m36 28a4 4 0 0 1 -8 0 3.657 3.657 0 0 1 .13-1h7.74a3.657 3.657 0 0 1 .13 1z" fill="#fff"/><rect fill="#d80027" height="4" rx="1" width="2" x="31" y="26"/><path d="m38.92 27h-13.83a6.986 6.986 0 0 1 13.83 0z" fill="#57565c"/><path d="m22 42h20v2h-20z" fill="#3e3d42"/></g></svg>