<svg width="800" height="1500" xmlns="http://www.w3.org/2000/svg" xmlns:xlink="http://www.w3.org/1999/xlink">
 <!-- Created with Method Draw - http://github.com/duopixel/Method-Draw/ -->
 <defs>
  <linearGradient spreadMethod="pad" y2="0" x2="1" y1="0" x1="0" id="svg_105">
   <stop offset="0" stop-opacity="0.99609" stop-color="#ffff00"/>
   <stop stop-opacity="0.99609" offset="1" stop-color="#ff7f00"/>
  </linearGradient>
  <linearGradient spreadMethod="pad" y2="0" x2="1" y1="0" x1="0" id="svg_236">
   <stop offset="0" stop-opacity="0.99609" stop-color="#007f7f"/>
   <stop offset="0.58594" stop-color="#000000"/>
  </linearGradient>
  <linearGradient spreadMethod="pad" y2="1" x2="1" y1="1" x1="0" id="svg_298">
   <stop offset="0" stop-opacity="0.99609" stop-color="#ffff00"/>
   <stop stop-opacity="0.99609" offset="1" stop-color="#ff7f00"/>
  </linearGradient>
  <linearGradient spreadMethod="pad" y2="0" x2="1" y1="0" x1="0" id="svg_307">
   <stop offset="0" stop-opacity="0.99609" stop-color="#ffff00"/>
   <stop offset="1" stop-opacity="0.99609" stop-color="#ffffff"/>
  </linearGradient>
  <linearGradient spreadMethod="pad" y2="0" x2="1" y1="0" x1="0" id="svg_313">
   <stop offset="0" stop-opacity="0.99609" stop-color="#7fff00"/>
   <stop offset="1" stop-opacity="0.99609" stop-color="#000000"/>
  </linearGradient>
  <linearGradient spreadMethod="pad" y2="0" x2="1" y1="0" x1="0" id="svg_320">
   <stop offset="0" stop-opacity="0.99609" stop-color="#007f7f"/>
   <stop stop-opacity="0.99609" offset="0.54688" stop-color="#000000"/>
  </linearGradient>
  <linearGradient y2="0.5" y1="0.5" x2="0.98851" x1="-0.02353" id="svg_28">
   <stop stop-color="#01d0fb" offset="0"/>
   <stop stop-color="#26a6fe" offset="0.6075"/>
   <stop stop-color="#0182fc" offset="1"/>
  </linearGradient>
  <linearGradient y2="0.5" y1="0.5" x2="0.98851" x1="-0.02353" id="svg_27">
   <stop stop-color="#01bffa" offset="0"/>
   <stop stop-color="#1f9efc" offset="0.2539"/>
   <stop stop-color="#407afd" offset="0.5724"/>
   <stop stop-color="#5464ff" offset="0.8326"/>
   <stop stop-color="#5b5cff" offset="1"/>
  </linearGradient>
  <linearGradient id="svg_30">
   <stop stop-color="#b0e7c9" offset="0"/>
   <stop stop-color="#46cc8d" offset="0.593"/>
   <stop stop-color="#0ab69f" offset="1"/>
  </linearGradient>
  <linearGradient y2="0.5" y1="0.5" xlink:href="#svg_30" x2="0.98851" x1="-0.02353" id="svg_26"/>
  <linearGradient id="svg_29">
   <stop stop-color="#46cc8d" offset="0"/>
   <stop stop-color="#0ab69f" offset="0.5484"/>
   <stop stop-color="#01998d" offset="1"/>
  </linearGradient>
  <linearGradient y2="0.5" y1="0.5" xlink:href="#svg_29" x2="0.91035" x1="-0.08138" id="svg_25"/>
  <linearGradient y2="0.5" y1="0.5" xlink:href="#svg_30" x2="0.96591" x1="-0.06648" id="svg_24"/>
  <linearGradient y2="0.5" y1="0.5" xlink:href="#svg_29" x2="0.96591" x1="-0.06648" id="svg_23"/>
  <linearGradient y2="0.5" y1="0.5" xlink:href="#svg_29" x2="1.28427" x1="0.1598" id="svg_22"/>
  <linearGradient y2="0.5" y1="0.5" xlink:href="#svg_30" x2="1.20919" x1="-0.13785" id="svg_21"/>
  <linearGradient y2="0.5" y1="0.5" xlink:href="#svg_30" x2="0.83309" x1="-0.15957" id="svg_20"/>
  <linearGradient y2="0.5" y1="0.5" xlink:href="#svg_29" x2="0.8331" x1="-0.15956" id="svg_19"/>
  <linearGradient y2="0.5" y1="0.5" x2="0.97041" x1="-0.02411" id="svg_18">
   <stop stop-color="#fff9df" offset="0"/>
   <stop stop-color="#ffe177" offset="0.593"/>
   <stop stop-color="#feb137" offset="1"/>
  </linearGradient>
  <linearGradient spreadMethod="pad" y2="0" x2="1" y1="0" x1="0" id="svg_1">
   <stop offset="0" stop-opacity="0.99609" stop-color="#007f7f"/>
   <stop stop-opacity="0.99609" offset="0.54688" stop-color="#aaffff"/>
  </linearGradient>
 </defs>
 <g stroke="null" id="Layer_1">
  <title>Layer 1</title>
  <rect stroke="#000" id="svg_49" height="1040.66026" width="1058.4368" y="594.99146" x="1037.8546" stroke-opacity="null" stroke-dasharray="null" stroke-width="0" fill="url(#svg_236)" transform="rotate(-89.7837 1567.07 1115.32)"/>
  <rect transform="rotate(90.0052 531.879 1066.62)" id="svg_230" height="1063.45694" width="889.86933" y="534.8913" x="86.94445" stroke-opacity="null" stroke-dasharray="2,2" stroke-width="0" fill="url(#svg_1)" stroke="#000"/>
  <g id="svg_282" stroke="null">
   <polyline id="svg_241" fill="#C97523" points="86.5250244140625,1299.49560546875 86.5250244140625,1353.2093505859375 65.6303482055664,1353.2093505859375 65.6303482055664,1299.4869384765625 " stroke="null"/>
   <polyline id="svg_242" fill="#A85613" points="74.95020294189453,1299.49560546875 74.95020294189453,1353.2093505859375 65.6303482055664,1353.2093505859375 65.6303482055664,1299.4869384765625 " stroke="null"/>
   <ellipse transform="matrix(0.465992 0 0 0.50257 -8.44632 1118.37)" id="svg_243" fill="#8CC928" ry="171.015" rx="108.782" cy="212.83904" cx="181.38443" stroke="null"/>
   <path id="svg_244" fill="#82B20B" d="m76.07744,1311.28362c-27.99868,0 -50.69156,-38.48231 -50.69156,-85.94706s22.69288,-85.94706 50.69156,-85.94706c-12.39586,0 -22.43985,38.48231 -22.43985,85.94706s10.044,85.94706 22.43985,85.94706z" stroke="null"/>
   <polygon id="svg_245" fill="#E9EAEF" points="243.79551696777344,1256.7403564453125 243.79551696777344,1366.16943359375 110.6810302734375,1366.16943359375 110.6810302734375,1256.7403564453125 177.6134490966797,1186.7156982421875 " stroke="null"/>
   <polyline id="svg_246" fill="#9EB1B7" points="211.22451782226562,1218.104736328125 211.22451782226562,1197.8914794921875 244.5033416748047,1197.8914794921875 244.5033416748047,1252.2850341796875 " stroke="null"/>
   <polyline id="svg_247" fill="#879BA0" points="211.22451782226562,1218.104736328125 211.22451782226562,1197.8914794921875 219.21669006347656,1197.8914794921875 219.21669006347656,1252.2850341796875 " stroke="null"/>
   <g transform="matrix(0.465992 0 0 0.50257 -8.44632 1118.37)" id="svg_248" stroke="null">
    <path id="svg_249" fill="#85C10D" d="m426.80642,447.44205l143.137,0c8.096,0 14.66,6.563 14.66,14.66l0,30.967l-172.457,0l0,-30.967c0,-8.097 6.563,-14.66 14.66,-14.66z" stroke="null"/>
    <path id="svg_250" fill="#85C10D" d="m87.26242,447.44205l166.026,0c8.096,0 14.66,6.563 14.66,14.66l0,30.967l-195.346,0l0,-30.967c0,-8.097 6.563,-14.66 14.66,-14.66z" stroke="null"/>
   </g>
   <polygon id="svg_251" fill="#D2D4D8" points="243.79551696777344,1261.036376953125 243.79551696777344,1281.490478515625 177.23828125,1212.953857421875 110.6810302734375,1281.490478515625 110.6810302734375,1261.036376953125 171.95204162597656,1198.100830078125 177.23828125,1192.8052978515625 182.52037048339844,1198.100830078125 " stroke="null"/>
   <polygon id="svg_252" fill="#EA4756" points="177.2364044189453,1201.5712890625 101.45724487304688,1279.600341796875 90.86105346679688,1270.0067138671875 171.95297241210938,1186.7156982421875 177.2364044189453,1181.4227294921875 182.5207977294922,1186.7156982421875 263.6127624511719,1270.0067138671875 253.0165557861328,1279.600341796875 " stroke="null"/>
   <rect transform="matrix(0.465992 0 0 0.50257 -8.44632 1118.37)" id="svg_253" fill="#C97523" height="163.132" width="94.204" y="329.93204" x="290.58443" stroke="null"/>
   <path id="svg_254" fill="#8E480E" d="m174.02387,1366.16933l-6.31699,0l0,-78.58139l-37.58227,0l0,78.58139l-6.31699,0l0,-81.98782c0,-1.88162 1.41382,-3.40642 3.1585,-3.40642l43.89973,0c1.74467,0 3.1585,1.5248 3.1585,3.40642l0,81.98782l-0.00047,0l-0.00001,0z" stroke="null"/>
   <rect transform="matrix(0.465992 0 0 0.50257 -8.44632 1118.37)" id="svg_255" fill="#A0D9F2" height="94.204" width="107.281" y="329.93204" x="412.15143" stroke="null"/>
   <rect transform="matrix(0.465992 0 0 0.50257 -8.44632 1118.37)" id="svg_256" fill="#C97523" height="28.626" width="107.281" y="329.93204" x="412.15143" stroke="null"/>
   <g transform="matrix(0.465992 0 0 0.50257 -8.44632 1118.37)" id="svg_257" stroke="null">
    <path id="svg_258" fill="#8E480E" d="m519.42442,430.91605l-107.278,0c-3.744,0 -6.778,-3.034 -6.778,-6.778l0,-94.206c0,-3.744 3.034,-6.778 6.778,-6.778l107.279,0c3.744,0 6.778,3.034 6.778,6.778l0,94.206c-0.001,3.742 -3.035,6.778 -6.779,6.778zm-100.5,-13.556l93.723,0l0,-80.65l-93.723,0l0,80.65z" stroke="null"/>
    <path id="svg_259" fill="#8E480E" d="m363.62542,417.75405l-13.674,0c-3.744,0 -6.778,-3.034 -6.778,-6.778s3.034,-6.778 6.778,-6.778l13.674,0c3.744,0 6.778,3.034 6.778,6.778s-3.035,6.778 -6.778,6.778z" stroke="null"/>
   </g>
   <circle transform="matrix(0.465992 0 0 0.50257 -8.44632 1118.37)" id="svg_260" fill="#413740" r="26.205" cy="257.13604" cx="398.47043" stroke="null"/>
   <rect transform="matrix(0.465992 0 0 0.50257 -8.44632 1118.37)" id="svg_261" fill="#8E480E" height="13.556" width="107.281" y="351.77804" x="412.15143" stroke="null"/>
   <path id="svg_262" fill="#EA4756" d="m177.23829,1264.1767c-8.47593,0 -15.37168,-7.43704 -15.37168,-16.57829s6.89528,-16.57829 15.37168,-16.57829s15.37215,7.43704 15.37215,16.57829c-0.00047,9.14125 -6.89622,16.57829 -15.37215,16.57829zm0,-26.34373c-4.99217,0 -9.0547,4.38091 -9.0547,9.76544s4.06205,9.76544 9.0547,9.76544s9.05516,-4.38091 9.05516,-9.76544s-4.06252,-9.76544 -9.05516,-9.76544z" stroke="null"/>
   <g transform="matrix(0.465992 0 0 0.50257 -8.44632 1118.37)" id="svg_263" stroke="null">
    <path id="svg_264" fill="#85C10D" d="m119.52742,460.47605c-4.32,0 -7.821,-3.502 -7.821,-7.821l0,-19.787c0,-4.319 3.501,-7.821 7.821,-7.821s7.821,3.502 7.821,7.821l0,19.787c0,4.32 -3.502,7.821 -7.821,7.821z" stroke="null"/>
    <path id="svg_265" fill="#85C10D" d="m94.40542,460.47605c-4.32,0 -7.821,-3.502 -7.821,-7.821l0,-19.787c0,-4.319 3.501,-7.821 7.821,-7.821s7.821,3.502 7.821,7.821l0,19.787c0,4.32 -3.501,7.821 -7.821,7.821z" stroke="null"/>
    <path id="svg_266" fill="#85C10D" d="m229.72242,460.47605c-4.32,0 -7.821,-3.502 -7.821,-7.821l0,-19.787c0,-4.319 3.501,-7.821 7.821,-7.821c4.32,0 7.821,3.502 7.821,7.821l0,19.787c0,4.32 -3.5,7.821 -7.821,7.821z" stroke="null"/>
   </g>
   <g transform="matrix(0.465992 0 0 0.50257 -8.44632 1118.37)" id="svg_267" stroke="null"/>
   <g transform="matrix(0.465992 0 0 0.50257 -8.44632 1118.37)" id="svg_268" stroke="null"/>
   <g transform="matrix(0.465992 0 0 0.50257 -8.44632 1118.37)" id="svg_269" stroke="null"/>
   <g transform="matrix(0.465992 0 0 0.50257 -8.44632 1118.37)" id="svg_270" stroke="null"/>
   <g transform="matrix(0.465992 0 0 0.50257 -8.44632 1118.37)" id="svg_271" stroke="null"/>
   <g transform="matrix(0.465992 0 0 0.50257 -8.44632 1118.37)" id="svg_272" stroke="null"/>
   <g transform="matrix(0.465992 0 0 0.50257 -8.44632 1118.37)" id="svg_273" stroke="null"/>
   <g transform="matrix(0.465992 0 0 0.50257 -8.44632 1118.37)" id="svg_274" stroke="null"/>
   <g transform="matrix(0.465992 0 0 0.50257 -8.44632 1118.37)" id="svg_275" stroke="null"/>
   <g transform="matrix(0.465992 0 0 0.50257 -8.44632 1118.37)" id="svg_276" stroke="null"/>
   <g transform="matrix(0.465992 0 0 0.50257 -8.44632 1118.37)" id="svg_277" stroke="null"/>
   <g transform="matrix(0.465992 0 0 0.50257 -8.44632 1118.37)" id="svg_278" stroke="null"/>
   <g transform="matrix(0.465992 0 0 0.50257 -8.44632 1118.37)" id="svg_279" stroke="null"/>
   <g transform="matrix(0.465992 0 0 0.50257 -8.44632 1118.37)" id="svg_280" stroke="null"/>
   <g transform="matrix(0.465992 0 0 0.50257 -8.44632 1118.37)" id="svg_281" stroke="null"/>
  </g>
  <g transform="rotate(-89.7715 255.357 1688.11)" stroke="null" id="svg_296">
   <g stroke="null" transform="matrix(10.4168 0 0 10.4168 0 0)" id="svg_286">
    <path stroke="null" id="svg_288" fill="#3e3d42" d="m22,69.99878l2,0l0,8l-2,0l0,-8z"/>
    <path stroke="null" id="svg_289" fill="#3e3d42" d="m40,69.99878l2,0l0,9l-2,0l0,-9z"/>
    <path stroke="null" id="svg_290" fill="#ea348b" d="m50.97,106.33878a2.072,2.072 0 0 1 -2.08,1.66l-7.89,0l0,11.81a5.992,5.992 0 0 1 9,5.19l-12,0l0,-8a1,1 0 0 0 -1,-1l-10,0a1,1 0 0 0 -1,1l0,8l-12,0a5.992,5.992 0 0 1 9,-5.19l0,-8.81l-8,0a2,2 0 0 1 -1.97,-2.34a2.072,2.072 0 0 1 2.08,-1.66l7.89,0l0,-2a8.932,8.932 0 0 1 1.08,-4.27a15,15 0 1 1 15.84,0a8.871,8.871 0 0 1 1.02,3.27l8.06,0a2,2 0 0 1 1.97,2.34z"/>
    <circle stroke="null" id="svg_291" r="8" fill="#ffda44" cy="85.99878" cx="32"/>
    <circle stroke="null" id="svg_292" r="2" fill="#ea348b" cy="68.99878" cx="41"/>
    <circle stroke="null" id="svg_293" r="2" fill="#ea348b" cy="68.99878" cx="23"/>
    <path stroke="null" id="svg_294" fill="#d80027" d="m32,87.99878a2,2 0 1 1 2,-2a2,2 0 0 1 -2,2z"/>
    <ellipse stroke="null" id="svg_295" transform="matrix(0.707 -0.707 0.707 0.707 -4.173 24.925)" ry="1" rx="1.5" fill="#fff" cy="62.7608" cx="-17.2608"/>
   </g>
  </g>
  <rect id="svg_317" height="1128.36751" width="641.32157" y="-253.61639" x="236.92671" stroke-opacity="null" stroke-dasharray="null" stroke-width="0" fill="url(#svg_320)" stroke="#000" transform="rotate(-89.6489 557.587 310.567)"/>
  <g id="svg_319" stroke="null">
   <g id="svg_47" stroke="null">
    <g transform="matrix(0.0770638 0 0 0.086719 -24.8096 438.769)" id="svg_32" stroke="null">
     <g id="svg_33" stroke="null">
      <g id="svg_34" stroke="null">
       <g id="svg_35" stroke="null">
        <path id="svg_36" fill="url(#svg_28)" d="m4224.20466,-1142.99266c0,140.833 -110.167,255 -251,255c-42.085,0 -81.789,-10.195 -116.777,-28.25c-37.037,-19.113 -64.788,-52.033 -88.486,-85.991c-17.782,-25.482 -35.029,-49.364 -42.57,-80.475c-4.684,-19.328 -7.167,-39.516 -7.167,-60.284c0,-140.833 114.167,-255 255,-255c109.245,0.713 251,114.167 251,255z" stroke="null"/>
       </g>
      </g>
      <path id="svg_37" fill="url(#svg_27)" d="m3973.20466,-1397.99266c-6.735,0 -13.407,0.266 -20.01,0.778c101.085,7.847 185.627,74.637 219.318,166.036c-0.035,0.065 -0.073,0.12 -0.108,0.187c-26.075,50.09 -70.47,107.693 -124.988,162.211s-112.132,98.913 -162.21,124.988c-18.687,9.725 -33.433,15.388 -44.807,18.521c21.73,13.283 45.605,23.395 70.981,29.715c54.719,-28.637 116.767,-76.336 174.846,-134.416c39.723,-39.723 74.583,-81.301 101.817,-121.122c0.084,2.691 0.142,5.389 0.142,8.101c0,134.098 -103.511,244.016 -234.99,254.222c6.602,0.513 13.274,0.779 20.009,0.779c65.459,0 125.157,-24.665 170.308,-65.207c16.569,-14.878 29.725,-33.322 41.942,-52.043c13.863,-21.243 26.099,-43.252 33.164,-68.249c6.245,-22.094 9.586,-45.407 9.586,-69.501c0,-63.976 -23.56,-122.449 -62.476,-167.217c-20.454,-23.529 -48.15,-40.273 -75.898,-55.039c-35.675,-18.986 -73.394,-32.744 -116.626,-32.744z" stroke="null"/>
      <path id="svg_38" fill="url(#svg_26)" d="m3875.60466,-1139.27766l-16.754,-16.754c-30.961,-30.961 -81.158,-30.961 -112.119,0c-19.551,19.551 -27.661,47.914 -20.992,74.747c16.203,65.196 57.493,120.475 113.033,155c28.872,17.948 66.275,13.782 90.314,-10.257c12.453,-12.454 29.345,-19.451 46.958,-19.451c21.829,0 39.525,-17.696 39.525,-39.525c0,-35.381 -28.682,-64.064 -64.064,-64.064l-15.543,0c-25.783,0 -46.685,-20.902 -46.685,-46.685c0,-12.382 -4.918,-24.256 -13.673,-33.011z" stroke="null"/>
      <path id="svg_39" fill="url(#svg_25)" d="m3929.08566,-936.54166c12.454,-12.454 29.346,-19.451 46.959,-19.451c21.829,0 39.525,-17.696 39.525,-39.525c0,-12.527 -3.609,-24.205 -9.824,-34.077c-41.43,36.559 -83.091,66.303 -120.539,85.802c-18.657,9.709 -33.384,15.369 -44.751,18.505c28.631,16.768 65.054,12.322 88.63,-11.254z" stroke="null"/>
      <path id="svg_40" fill="url(#svg_24)" d="m4133.91666,-1164.99266c53.551,0 87.389,-57.854 60.819,-104.348c-43.92,-76.854 -126.672,-128.652 -221.531,-128.652c-0.8,0 -1.598,0.004 -2.396,0.011c-29.119,0.27 -52.604,23.906 -52.604,53.027c0,14.062 5.586,27.548 15.529,37.491l47.344,47.344c12.921,12.921 33.87,12.921 46.791,0c12.921,-12.921 33.87,-12.921 46.791,0c19.103,19.103 29.835,45.013 29.835,72.029c0,12.756 10.341,23.097 23.097,23.097l6.325,0l0,0.001z" stroke="null"/>
      <path id="svg_41" fill="url(#svg_23)" d="m3959.44466,-1396.64266c98.308,10.059 180.074,75.956 213.067,165.465c-0.035,0.065 -0.073,0.12 -0.108,0.187c-10.903,20.944 -25.018,43.203 -41.727,65.998l3.239,0c53.551,0 87.389,-57.854 60.819,-104.348c-43.919,-76.854 -126.671,-128.652 -221.53,-128.652c-0.97,0 -1.935,0.018 -2.902,0.029c-3.727,0.069 -7.357,0.524 -10.858,1.321z" stroke="null"/>
      <circle id="svg_42" r="38.993" fill="url(#svg_22)" cy="-1170.73566" cx="4046.78666" stroke="null"/>
      <circle id="svg_43" r="32.139" fill="url(#svg_21)" cy="-1227.88166" cx="3793.20466" stroke="null"/>
      <path id="svg_44" fill="url(#svg_20)" d="m4218.61466,-1073.49266l-27.28,0c-29.857,0 -58.491,11.861 -79.603,32.973l-27.26,27.26c-10.8,10.8 -3.15,29.267 12.124,29.267c9.725,0 17.609,7.884 17.609,17.609c0,15.187 17.998,23.319 29.299,13.173c35.373,-31.758 61.82,-73.256 75.111,-120.282z" stroke="null"/>
      <path id="svg_45" fill="url(#svg_19)" d="m4191.33466,-1073.49266c-4.356,0 -8.685,0.26 -12.969,0.757c-11.939,41.739 -34.243,79.095 -63.957,109.113c2.018,13.371 18.499,19.925 29.094,10.413c35.373,-31.758 61.82,-73.256 75.112,-120.282l-27.28,0l0,-0.001z" stroke="null"/>
     </g>
     <path id="svg_46" fill="url(#svg_18)" d="m4203.93366,-1373.72166c-17.477,-17.477 -52.517,-30.515 -121.39,0.305c21.039,9.989 40.492,22.783 57.871,37.906c5.83,-1.207 10.525,-1.659 14.209,-1.659c3.098,0 5.476,0.317 7.196,0.756c1.732,0.439 2.805,1 3.305,1.5c1.585,1.597 3.842,9.062 0.598,24.709c-2.512,12.123 -8.33,29.174 -20.319,52.212c-26.076,50.09 -70.47,107.693 -124.987,162.211c-54.517,54.517 -112.133,98.912 -162.211,124.988c-23.039,11.989 -40.089,17.807 -52.212,20.319c-15.648,3.244 -23.112,0.988 -24.71,-0.598c-1.586,-1.598 -3.842,-9.062 -0.598,-24.709c-15.123,-17.38 -27.917,-36.833 -37.906,-57.872c-30.82,68.873 -17.782,103.9 -0.305,121.39c9.842,9.83 25.234,18.27 49.09,18.27c18.526,0 42.175,-5.098 72.287,-18.575c6.281,-2.805 12.843,-5.976 19.697,-9.549c54.92,-28.588 117.304,-76.483 175.675,-134.854c58.371,-58.372 106.266,-120.755 134.854,-175.675c3.561,-6.854 6.745,-13.404 9.55,-19.685c13.477,-30.113 18.575,-53.774 18.575,-72.312c0.001,-23.844 -8.426,-39.236 -18.269,-49.078z" stroke="null"/>
    </g>
   </g>
   <g id="svg_73" stroke="null">
    <g transform="matrix(0.240415 0 0 0.306912 -157.279 1213.01)" id="svg_54" stroke="null">
     <path id="svg_55" fill="#ffe02f" d="m823.03523,-3069.87058l-12.877,-30.632l-5.138,0c-32.634,57.987 -47.095,109.585 -38.429,143.835l34.894,-34.44c-3.654,-17.205 3.181,-42.952 18.584,-73.745l2.966,-5.018z" stroke="null"/>
     <path id="svg_56" fill="#fbc700" d="m780.78923,-2970.68158l20.696,-20.426c-3.654,-17.205 3.181,-42.952 18.584,-73.745l2.966,-5.018l-12.877,-30.632l-5.138,0c-9.46,16.809 -17.381,33.075 -23.666,48.543c-10.867,33.976 -11.664,62.399 -0.565,81.278z" stroke="null"/>
     <path id="svg_57" fill="#ffe02f" d="m1090.00523,-3385.48758l0,4.843l29.725,12.706l5.925,-2.499c33.346,-16.68 60.775,-23.313 77.846,-17.456l35.089,-34.633c-34.125,-11.385 -87.851,2.859 -148.585,37.039z" stroke="null"/>
     <path id="svg_58" fill="#fbc700" d="m1125.65423,-3370.43758c33.346,-16.68 60.775,-23.313 77.846,-17.456l19.759,-19.502c-18.831,-13.467 -48.811,-13.265 -85.105,-1.598c-15.35,6.259 -31.484,14.127 -48.15,23.506l0,4.843l29.725,12.706l5.925,-2.499z" stroke="null"/>
     <path id="svg_59" fill="#ff9838" d="m1209.92523,-3288.13358l-105.649,-76.714l-4.23,-17.113c-3.325,-1.254 -6.672,-2.435 -10.041,-3.527c0.008,-0.005 0.016,-0.009 0.024,-0.014c-10.353,-3.355 -20.673,-5.926 -30.917,-7.773l0,0.017l-38.445,11.297l-208.406,151.553l-17.99,42.754l-0.014,0.008c-1.39,18.625 -0.423,37.819 3.174,57.279l0.015,-0.006l11.166,3.842l76.234,117.098l-3.496,17.612c3.108,2.421 6.262,4.769 9.477,7.014l31.106,1.671l70.862,-51.323l109.297,-97.973l109.668,-150.686l-1.835,-5.016z" stroke="null"/>
     <path id="svg_60" fill="#ff8706" d="m797.44623,-3130.37258l11.166,3.842l76.234,117.098l-3.496,17.612c3.108,2.421 6.262,4.769 9.477,7.014l31.106,1.671l49.899,-36.14c-64.059,-44.434 -106.018,-118.488 -106.018,-202.353c0,-17.732 1.892,-35.019 5.455,-51.688l-59.008,42.911l-17.99,42.754l-0.014,0.008c-1.39,18.625 -0.423,37.819 3.174,57.279l0.015,-0.008z" stroke="null"/>
     <path id="svg_61" fill="#ff9838" d="m1162.12323,-3040.16158l72.3,-78.643l9.667,-17.617l0.001,0.001c5.034,-33.061 2.675,-68.282 -8.862,-103.879l-11.71,1.735l-99.671,129.456l-94.562,83.052l132.837,-14.105z" stroke="null"/>
     <path id="svg_62" fill="#ffaa5b" d="m1030.38623,-3345.02858c13.514,-13.514 23.367,-30.132 28.725,-48.229c-134.192,-24.201 -255.246,77.184 -264.84,205.604l32.992,-32.992c19.469,-19.469 45.264,-31.249 72.464,-33.093c27.2,-1.845 52.995,-13.625 72.464,-33.094l58.195,-58.196z" stroke="null"/>
     <path id="svg_63" fill="#ff9838" d="m867.05823,-3246.48658c4.696,-46.827 22.529,-89.774 49.744,-125.127c-67.983,35.415 -116.595,104.505 -122.531,183.96l32.992,-32.992c11.417,-11.417 25.019,-20.165 39.795,-25.841z" stroke="null"/>
     <path id="svg_64" fill="#ffaa5b" d="m1205.69923,-3299.68058c-4.523,-6.477 -9.428,-12.733 -14.655,-18.758l-8.989,-2.283l-36.915,-34.168l-1.727,-5.121c-5.72,-3.728 -11.637,-7.214 -17.739,-10.437c-0.007,0.003 -0.014,0.006 -0.02,0.01c-8.336,-4.402 -16.892,-8.236 -25.608,-11.523l-1.006,6.035c-4.219,25.312 -16.241,48.672 -34.386,66.817l-63.932,63.933c-21.388,21.388 -49.901,34.155 -80.101,35.864c-30.199,1.71 -58.712,14.476 -80.101,35.864l-43.074,43.074c1.833,9.91 4.316,19.886 7.56,29.895c0.004,-0.009 0.009,-0.016 0.013,-0.025c2.109,6.507 4.529,12.934 7.241,19.265l4.722,0l31.292,47.938l0.128,10.039c9.994,11.642 21.058,22.178 32.947,31.438l79.328,-79.328c11.37,-11.37 19.54,-25.539 23.683,-41.076l6.473,-24.273c4.144,-15.537 12.312,-29.706 23.682,-41.076l46.482,-46.482c11.122,-11.122 24.926,-19.185 40.077,-23.41l90.359,-25.197l8.392,-2.473l8.591,-17.116l-2.717,-7.426z" stroke="null"/>
     <path id="svg_65" fill="#ff9838" d="m805.02023,-3100.50258c2.109,6.507 4.529,12.934 7.241,19.265l4.722,0l31.292,47.938l0.128,10.039c9.994,11.642 21.058,22.178 32.947,31.438l56.17,-56.17c-38.156,-38.324 -63.75,-89.152 -70.129,-145.801c-9.772,5.476 -18.826,12.3 -26.871,20.345l-43.074,43.074c1.833,9.91 4.316,19.886 7.56,29.895c0.004,-0.007 0.009,-0.015 0.014,-0.023z" stroke="null"/>
     <path id="svg_66" fill="#ffba7e" d="m918.34323,-3093.19758c9.813,-9.813 16.936,-21.986 20.684,-35.348c5.537,-19.739 -12.657,-37.934 -32.397,-32.397c-13.362,3.748 -25.535,10.871 -35.348,20.684l-59.021,59.021c2.374,5.541 4.97,11.009 7.808,16.384c-0.003,0.007 -0.006,0.013 -0.01,0.02c7.947,15.051 17.519,28.96 28.343,41.575l69.941,-69.939z" stroke="null"/>
     <path id="svg_67" fill="#ffaa5b" d="m820.05923,-3064.83258c7.947,15.051 17.519,28.96 28.343,41.575l59.987,-59.987c-13.047,-19.153 -23.453,-40.244 -30.715,-62.75c-2.223,1.795 -4.361,3.704 -6.392,5.735l-59.021,59.021c2.374,5.541 4.97,11.009 7.808,16.385c-0.003,0.008 -0.006,0.014 -0.01,0.021z" stroke="null"/>
     <path id="svg_68" fill="#ffba7e" d="m1143.41323,-3360.01058l-9.293,27.969c-4.347,13.082 7.428,25.823 20.812,22.519l36.112,-8.916c-13.677,-15.766 -29.67,-29.866 -47.631,-41.572z" stroke="null"/>
     <path id="svg_69" fill="#ffaa5b" d="m1174.04223,-3066.37258c-16.036,16.036 -37.548,25.405 -60.211,26.225l-47.969,1.734l-18.419,3.227l-97.236,72.113l0,7.798c140.04,45.387 274.094,-51.178 293.883,-181.145l-70.048,70.048z" stroke="null"/>
     <path id="svg_70" fill="#ff9838" d="m1111.92723,-2975.51858c-39.541,0 -76.896,-9.34 -110.002,-25.911l-51.716,38.355l0,7.798c67.756,21.96 134.11,10.687 186.799,-21.519c-8.249,0.836 -16.613,1.277 -25.081,1.277z" stroke="null"/>
     <path id="svg_71" fill="#ffe02f" d="m1232.16223,-3424.31658l-35.306,34.846c6.981,1.027 12.712,3.605 16.974,7.867c32.412,32.412 -31.959,149.333 -143.777,261.151c-111.817,111.817 -228.739,176.188 -261.151,143.776c-5.184,-5.184 -7.881,-12.538 -8.315,-21.68l-35.377,34.918c2.076,13.196 7.144,24.208 15.447,32.511c49.893,49.893 197.549,-16.872 329.799,-149.122s199.016,-279.908 149.123,-329.801c-7.21,-7.209 -16.466,-11.975 -27.417,-14.466z" stroke="null"/>
     <path id="svg_72" fill="#fbc700" d="m1228.90323,-3402.64758c-3.143,-3.144 -6.73,-5.758 -10.697,-7.895l-21.349,21.072c6.981,1.027 12.712,3.605 16.974,7.867c32.412,32.412 -31.959,149.333 -143.777,261.151c-111.818,111.817 -228.74,176.188 -261.152,143.776c-5.184,-5.184 -7.881,-12.538 -8.315,-21.68l-22.547,22.254c2.402,5.535 5.639,10.416 9.77,14.547c45.577,45.577 181.265,-16.218 303.07,-138.023c121.805,-121.803 183.6,-257.492 138.023,-303.069z" stroke="null"/>
    </g>
   </g>
   <g id="svg_99" stroke="null">
    <path id="svg_78" fill="#ce467e" d="m579.30579,361.15909a33.3712,41.63731 0 0 1 1.2692,11.9285c-8.30748,-0.89935 -8.42828,4.81341 -12.24538,5.92275c-3.38543,0.98402 -4.48494,-2.16621 -7.69527,-0.50132s-1.9357,5.49764 -5.14602,7.16252s-9.62961,4.99463 -12.83993,6.6595s-4.48494,-2.16621 -7.69527,-0.50132s-1.9357,5.49764 -5.14602,7.16252s-4.75644,-1.99684 -7.96676,-0.33196l-0.17375,0.17953a33.19501,41.41746 0 0 1 -5.84509,-13.24957c5.32384,-2.05442 4.34106,-6.16156 9.67577,-8.2126c5.33742,-2.05272 6.32427,2.0595 11.66303,0.00678s4.35057,-6.16495 9.68798,-8.21767s16.01496,-6.15986 21.35374,-8.2126c5.14602,-1.9799 6.24825,1.77157 11.10377,0.20493l0.00001,0l-0.00001,0.00001z" stroke="null"/>
    <path id="svg_79" fill="#9be147" d="m580.57499,373.08759a33.03985,41.22389 0 0 1 -1.29092,10.89537c-2.98363,1.67165 -5.11616,1.09412 -9.24953,1.45147c-3.01756,0.26082 -1.94384,5.49257 -5.15688,7.14897s-4.48223,-2.17806 -7.69392,-0.51996s-9.63912,4.97091 -12.85215,6.62732s-1.94384,5.49257 -5.15688,7.15067s-4.48088,-2.17806 -7.69392,-0.52165a3.98202,4.96837 0 0 0 -2.01579,2.14758a33.04854,41.23471 0 0 1 -7.79843,-8.62755l0.17375,-0.17953c3.21032,-1.66488 4.75644,1.99684 7.96676,0.33196s1.9357,-5.49764 5.14602,-7.16252s4.48494,2.16789 7.69527,0.50132s9.62961,-4.99463 12.83993,-6.6595s1.9357,-5.49764 5.14602,-7.16252s4.30984,1.48534 7.69527,0.50132c3.81709,-1.10936 3.93791,-6.8221 12.24538,-5.92275l0.00001,0.00001l0.00001,-0.00001z" stroke="null"/>
    <path id="svg_80" fill="#9be147" d="m579.30579,361.15909c-4.85554,1.56664 -5.95776,-2.18483 -11.10377,-0.20493c-5.33878,2.05272 -16.01496,6.15818 -21.35374,8.2126s-4.35057,6.16495 -9.68798,8.21767s-6.32563,-2.0595 -11.66303,-0.00678c-5.3347,2.05103 -4.35193,6.15818 -9.67577,8.2126a33.38329,41.65238 0 0 1 -1.69815,-13.507c5.02928,-2.01885 6.07314,1.88674 11.13229,-0.17783c5.08086,-2.07135 4.04786,-6.01591 9.12872,-8.08726s6.11115,1.8715 11.19201,-0.20154s15.24122,-6.21746 20.32073,-8.28882c4.70892,-1.92062 4.16731,-5.45022 8.10657,-7.60626a33.27387,41.51586 0 0 1 5.30212,13.43756l-0.00001,-0.00001l-0.00001,0.00001l0.00002,-0.00001z" stroke="null"/>
    <path id="svg_81" fill="#ce467e" d="m579.28407,383.98296a33.33617,41.59361 0 0 1 -3.36643,9.70303c-9.36763,19.70244 -29.75215,26.19088 -45.52957,14.49271c-0.3122,-0.23203 -0.62034,-0.46745 -0.92305,-0.71134a3.98202,4.96837 0 0 1 2.01579,-2.14758c3.21303,-1.65641 4.48088,2.17806 7.69392,0.52165s1.94384,-5.49257 5.15688,-7.15067s9.63912,-4.97091 12.85215,-6.62732s4.48088,2.17806 7.69392,0.51996s2.13931,-6.88815 5.15688,-7.14897c4.13338,-0.35737 6.2659,0.22018 9.24953,-1.45147l0.00001,0.00001l-0.00002,-0.00001l-0.00001,0z" stroke="null"/>
    <path id="svg_82" fill="#ce467e" d="m574.00366,347.72153c-3.93927,2.15604 -3.39764,5.68564 -8.10657,7.60626c-5.07951,2.07135 -15.24122,6.21746 -20.32073,8.28882s-6.11251,-1.8715 -11.19201,0.20154s-4.04786,6.01591 -9.12872,8.08726c-5.05914,2.06458 -6.103,-1.84101 -11.13229,0.17783a33.105,41.30518 0 0 1 4.65734,-20.75928c0.11538,-0.2422 0.23076,-0.481 0.35022,-0.71811c2.40537,-0.34721 5.1596,-1.35663 7.56631,-0.97217c3.1791,0.5081 6.38128,4.36628 9.97846,4.36797c7.35049,0.00339 13.71955,-6.73911 32.16838,-13.13947l0.00136,0a33.02206,41.20169 0 0 1 5.15823,6.85936l0.00003,0l0.00001,-0.00001l-0.00002,0z" stroke="null"/>
    <path id="svg_83" fill="#9be147" d="m564.31026,336.83124a33.46581,41.75536 0 0 1 4.53381,4.03092c-18.44883,6.40036 -24.81789,13.14287 -32.16838,13.13947c-3.59719,-0.0017 -6.79937,-3.85987 -9.97846,-4.36797c-2.40672,-0.38446 -5.16095,0.62496 -7.56631,0.97217q0.77984,-1.57003 1.65334,-3.0232c2.35108,-0.57246 5.16366,-0.69272 7.32198,-1.96635c2.89811,-1.71061 4.95733,-6.74588 8.40928,-8.00428c2.7773,-1.0145 14.5693,3.22982 22.78582,-0.25575c0.19275,-0.08299 0.38687,-0.1609 0.58369,-0.23034l3.23204,-1.13815q0.60067,0.40394 1.19318,0.84344l0,0.00002l0.00001,0.00002z" stroke="null"/>
    <path id="svg_84" fill="#ce467e" d="m563.11707,335.9878l-3.23204,1.13815c-0.19683,0.06944 -0.39094,0.14735 -0.58369,0.23034c-8.21653,3.48557 -20.00852,-0.75876 -22.78582,0.25575c-3.45194,1.2584 -5.51116,6.29368 -8.40928,8.00428c-2.15831,1.27363 -4.97091,1.39388 -7.32198,1.96635c9.77621,-16.29308 27.79609,-21.40118 42.33282,-11.59485l-0.00001,-0.00001l0,-0.00001z" stroke="null"/>
    <path id="svg_85" fill="#de688c" d="m527.45548,399.37586q-0.18122,-0.26676 -0.35917,-0.53605a33.19501,41.41746 0 0 1 -5.84509,-13.24957q-0.49275,-1.85322 -0.84336,-3.75825c-1.01251,1.42082 -2.12587,2.80878 -4.58635,3.75825a33.19501,41.41746 0 0 0 5.84509,13.24957l0.17375,-0.17953c2.32256,-1.20453 3.77434,0.37802 5.61515,0.71557l-0.00001,-0.00001l-0.00001,0.00001l0,0.00001z" stroke="null"/>
    <path id="svg_86" fill="#d8ff33" d="m531.4808,405.3198a4.751,5.92784 0 0 1 0.67966,-0.27827a32.93234,41.08975 0 0 1 -4.70499,-5.66566c-1.84081,-0.33755 -3.29258,-1.92011 -5.61515,-0.71557l-0.17375,0.17953a33.04854,41.23471 0 0 0 7.79843,8.62755a3.98202,4.96837 0 0 1 2.01579,-2.14758l0.00001,0.00001l0.00001,-0.00001l-0.00001,0z" stroke="null"/>
    <path id="svg_87" fill="#d8ff33" d="m520.40784,381.832a33.34513,41.60479 0 0 1 -0.85517,-9.74876c0,-0.03641 0.00108,-0.073 0.00149,-0.10958c-1.48137,-0.45255 -2.98472,-0.87258 -5.43122,0.10958a33.38329,41.65238 0 0 0 1.69815,13.507c2.46088,-0.94947 3.57425,-2.33743 4.58676,-3.75825l-0.00001,0l0,0.00001z" stroke="null"/>
    <path id="svg_88" fill="#de688c" d="m534.89474,407.46736a33.42075,41.69912 0 0 1 -2.73427,-2.42584a4.751,5.92784 0 0 0 -0.67966,0.27827a3.98202,4.96837 0 0 0 -2.01579,2.14758c0.30271,0.24389 0.61084,0.47931 0.92305,0.71134a33.04921,41.23557 0 0 0 19.65627,5.68091a33.06618,41.25674 0 0 1 -14.22586,-5.68091c-0.31289,-0.23203 -0.62103,-0.46745 -0.92373,-0.71134l-0.00001,0l-0.00001,0l0.00001,-0.00001z" stroke="null"/>
    <path id="svg_89" fill="#de688c" d="m519.55456,371.97367a33.1046,41.30467 0 0 1 4.65585,-20.64971c0.11538,-0.2422 0.23076,-0.481 0.35022,-0.71811c0.17538,-0.35296 0.35564,-0.69999 0.53823,-1.04431c-1.98008,0.09485 -4.08112,0.77197 -5.96794,1.04431c-0.11946,0.23711 -0.23483,0.47592 -0.35022,0.71811a33.105,41.30518 0 0 0 -4.65734,20.75928c2.4465,-0.98216 3.94986,-0.56213 5.43122,-0.10958l0,0.00001l-0.00001,0l-0.00001,0z" stroke="null"/>
    <path id="svg_90" fill="#d8ff33" d="m526.21398,347.58265q0.45773,-0.76215 0.93906,-1.49263c-1.99284,0.84057 -4.35029,1.00113 -6.3688,1.49263q-0.87147,1.45062 -1.65334,3.0232c1.88683,-0.27235 3.98785,-0.94947 5.96794,-1.04431q0.53835,-1.01485 1.11513,-1.97889l0.00001,0z" stroke="null"/>
    <path id="svg_91" fill="#de688c" d="m550.09226,331.15137a33.23071,41.46201 0 0 0 -29.308,16.43129c2.01849,-0.49116 4.37594,-0.65173 6.3688,-1.49263a33.20423,41.42898 0 0 1 22.93922,-14.93867l-0.00001,0l0,0.00001l-0.00001,0z" stroke="null"/>
    <g transform="matrix(0.135743 0 0 0.169366 35.8186 685.014)" id="svg_92" fill="#7cb729" stroke="null">
     <path id="svg_93" d="m3671.17696,-1835.14296a49.056,49.056 0 0 1 -18.277,-3.551a7.736,7.736 0 0 1 -4.3,-10.041a49.151,49.151 0 0 1 23.229,-25.5a6,6 0 0 1 5.469,10.682a37.12,37.12 0 0 0 -15.609,15.162a37.171,37.171 0 0 0 42.032,-18.024a36.849,36.849 0 0 0 -8.032,-1.21a6,6 0 0 1 0.47,-11.991a48.982,48.982 0 0 1 16.346,3.5a7.734,7.734 0 0 1 4.3,10.041a49.261,49.261 0 0 1 -45.628,30.932z" stroke="null"/>
     <path id="svg_94" d="m3682.69796,-1981.81196a6,6 0 0 1 -2.032,-0.356a64.81,64.81 0 0 1 -19.311,-11.011a8.369,8.369 0 0 1 -1.138,-11.762a64.926,64.926 0 0 1 39.485,-22.808a6,6 0 1 1 1.969,11.837a52.915,52.915 0 0 0 -29.694,15.771a52.664,52.664 0 0 0 12.748,6.682a6,6 0 0 1 -2.032,11.647l0.005,0z" stroke="null"/>
     <path id="svg_95" d="m3706.52096,-1978.46996a6,6 0 0 1 -0.388,-11.986a52.414,52.414 0 0 0 34.944,-16.376a52.671,52.671 0 0 0 -12.653,-6.65a6,6 0 0 1 4.087,-11.282a64.81,64.81 0 0 1 19.19,10.967a8.369,8.369 0 0 1 1.137,11.761a65.226,65.226 0 0 1 -45.915,23.553c-0.137,0.01 -0.27,0.013 -0.402,0.013z" stroke="null"/>
     <path id="svg_96" d="m3680.35396,-1667.72696a49.063,49.063 0 0 1 -18.278,-3.55a7.735,7.735 0 0 1 -4.3,-10.04a49.149,49.149 0 0 1 23.229,-25.5a6,6 0 1 1 5.469,10.681a37.134,37.134 0 0 0 -15.61,15.162a37.169,37.169 0 0 0 42.033,-18.023a36.84,36.84 0 0 0 -8.031,-1.21a6,6 0 0 1 0.468,-11.991a49.011,49.011 0 0 1 16.347,3.5a7.737,7.737 0 0 1 4.3,10.041a49.256,49.256 0 0 1 -45.627,30.938l0,-0.008z" stroke="null"/>
     <path id="svg_97" d="m3865.97696,-1748.58196c-0.191,0 -0.384,-0.01 -0.579,-0.028a49.149,49.149 0 0 1 -13.6,-3.313a7.736,7.736 0 0 1 -4.3,-10.041a49.151,49.151 0 0 1 23.229,-25.5a6,6 0 1 1 5.469,10.681a37.135,37.135 0 0 0 -15.619,15.157a36.961,36.961 0 0 0 5.958,1.071a6,6 0 0 1 -0.565,11.973l0.007,0z" stroke="null"/>
     <path id="svg_98" d="m3886.37696,-1751.60396a6,6 0 0 1 -2.27,-11.554a36.829,36.829 0 0 0 18.507,-16.488a36.8,36.8 0 0 0 -8.037,-1.212a6,6 0 1 1 0.469,-11.991a48.988,48.988 0 0 1 16.347,3.5a7.735,7.735 0 0 1 4.3,10.04a48.776,48.776 0 0 1 -27.047,27.259a5.983,5.983 0 0 1 -2.269,0.446z" stroke="null"/>
    </g>
   </g>
   <path stroke-width="0" id="svg_104" d="m602.83347,326.88182l4.06582,0l1.25637,-6.91088l1.25637,6.91088l4.06582,0l-3.28931,4.2711l1.25643,6.91088l-3.28931,-4.27122l-3.28931,4.27122l1.25643,-6.91088l-3.28931,-4.2711z" stroke-opacity="null" stroke-dasharray="5,2,2,2" fill="url(#svg_298)" stroke="#000"/>
   <path stroke-width="0" id="svg_109" d="m216.87623,191.21391l7.50614,0l2.31945,-8.83054l2.31946,8.83054l7.50614,0l-6.07258,5.45752l2.31956,8.83056l-6.07258,-5.45767l-6.07257,5.45767l2.31956,-8.83056l-6.07258,-5.45752l0.00002,0l-0.00002,0z" stroke-opacity="null" stroke-dasharray="5,2,2,2" fill="url(#svg_105)" stroke="#000"/>
   <path stroke-width="0" id="svg_110" d="m540.05856,270.6392l5.94235,0l1.83623,-6.52694l1.83623,6.52694l5.94235,0l-4.80746,4.03382l1.83632,6.52695l-4.80746,-4.03394l-4.80745,4.03394l1.83632,-6.52695l-4.80746,-4.03382l0.00001,0l0.00002,0z" stroke-opacity="null" stroke-dasharray="5,2,2,2" fill="url(#svg_105)" stroke="#000"/>
   <path stroke-width="0" id="svg_119" d="m448.50762,53.69367l3.12755,0l0.96644,-4.22332l0.96644,4.22332l3.12756,0l-2.53024,2.61013l0.96648,4.22332l-2.53024,-2.61019l-2.53024,2.61019l0.96648,-4.22332l-2.53024,-2.61013l0.00001,0z" stroke-opacity="null" stroke-dasharray="5,2,2,2" fill="url(#svg_105)" stroke="#000"/>
   <path stroke-width="0" id="svg_128" d="m691.44524,285.66292l3.12755,0l0.96644,-4.22332l0.96644,4.22332l3.12756,0l-2.53024,2.61013l0.96648,4.22332l-2.53024,-2.61019l-2.53024,2.61019l0.96648,-4.22332l-2.53024,-2.61013l0.00001,0z" stroke-opacity="null" stroke-dasharray="5,2,2,2" fill="url(#svg_105)" stroke="#000"/>
   <path stroke-width="0" id="svg_132" d="m41.0778,344.05024l3.12755,0l0.96644,-4.22332l0.96644,4.22332l3.12756,0l-2.53024,2.61013l0.96648,4.22332l-2.53024,-2.61019l-2.53024,2.61019l0.96648,-4.22332l-2.53024,-2.61013l0.00001,0z" stroke-opacity="null" stroke-dasharray="5,2,2,2" fill="url(#svg_105)" stroke="#000"/>
   <path stroke-width="0" id="svg_133" d="m473.8904,67.76583l3.12755,0l0.96644,-4.22332l0.96644,4.22332l3.12756,0l-2.53024,2.61013l0.96648,4.22332l-2.53024,-2.61019l-2.53024,2.61019l0.96648,-4.22332l-2.53024,-2.61013l0.00001,0z" stroke-opacity="null" stroke-dasharray="5,2,2,2" fill="url(#svg_105)" stroke="#000"/>
   <path stroke-width="0" id="svg_135" d="m146.42158,124.62797l10.0022,0l3.09075,-8.6925l3.09076,8.6925l10.0022,0l-8.09193,5.37221l3.09092,8.69253l-8.09193,-5.37236l-8.09192,5.37236l3.09092,-8.69253l-8.09193,-5.37221l-0.00001,0l-0.00003,0z" stroke-opacity="null" stroke-dasharray="5,2,2,2" fill="url(#svg_105)" stroke="#000"/>
   <path stroke-width="0" id="svg_137" d="m234.89325,277.35682l3.12755,0l0.96644,-4.22332l0.96644,4.22332l3.12756,0l-2.53024,2.61013l0.96648,4.22332l-2.53024,-2.61019l-2.53024,2.61019l0.96648,-4.22332l-2.53024,-2.61013l0.00001,0z" stroke-opacity="null" stroke-dasharray="5,2,2,2" fill="url(#svg_105)" stroke="#000"/>
   <path stroke-width="0" id="svg_141" d="m313.31446,12.37052l3.12755,0l0.96644,-4.22332l0.96644,4.22332l3.12756,0l-2.53024,2.61013l0.96648,4.22332l-2.53024,-2.61019l-2.53024,2.61019l0.96648,-4.22332l-2.53024,-2.61013l0.00001,0z" stroke-opacity="null" stroke-dasharray="5,2,2,2" fill="url(#svg_105)" stroke="#000"/>
   <path stroke-width="0" id="svg_142" d="m39.44021,159.10177l3.12755,0l0.96644,-4.22332l0.96644,4.22332l3.12756,0l-2.53024,2.61013l0.96648,4.22332l-2.53024,-2.61019l-2.53024,2.61019l0.96648,-4.22332l-2.53024,-2.61013l0.00001,0z" stroke-opacity="null" stroke-dasharray="5,2,2,2" fill="url(#svg_105)" stroke="#000"/>
   <path stroke-width="0" id="svg_143" d="m678.0699,197.76824l3.12755,0l0.96644,-4.22332l0.96644,4.22332l3.12756,0l-2.53024,2.61013l0.96648,4.22332l-2.53024,-2.61019l-2.53024,2.61019l0.96648,-4.22332l-2.53024,-2.61013l0.00001,0z" stroke-opacity="null" stroke-dasharray="5,2,2,2" fill="url(#svg_105)" stroke="#000"/>
   <path stroke-width="0" id="svg_144" d="m317.40658,90.68273l4.69133,0l1.44965,-6.14299l1.44966,6.14299l4.69133,0l-3.79535,3.79655l1.44973,6.143l-3.79535,-3.79663l-3.79535,3.79663l1.44973,-6.143l-3.79535,-3.79655l-0.00002,0l-0.00001,0z" stroke-opacity="null" stroke-dasharray="5,2,2,2" fill="url(#svg_105)" stroke="#000"/>
   <path stroke-width="0" id="svg_145" d="m289.02115,127.9717l3.12755,0l0.96644,-4.22332l0.96644,4.22332l3.12756,0l-2.53024,2.61013l0.96648,4.22332l-2.53024,-2.61019l-2.53024,2.61019l0.96648,-4.22332l-2.53024,-2.61013l0.00001,0z" stroke-opacity="null" stroke-dasharray="5,2,2,2" fill="url(#svg_105)" stroke="#000"/>
   <path stroke-width="0" id="svg_146" d="m59.45542,71.09445l3.12755,0l0.96644,-4.22332l0.96644,4.22332l3.12756,0l-2.53024,2.61013l0.96648,4.22332l-2.53024,-2.61019l-2.53024,2.61019l0.96648,-4.22332l-2.53024,-2.61013l0.00001,0z" stroke-opacity="null" stroke-dasharray="5,2,2,2" fill="url(#svg_105)" stroke="#000"/>
   <path stroke-width="0" id="svg_189" d="m400.10527,149.07234l3.12755,0l0.96644,-4.22332l0.96644,4.22332l3.12756,0l-2.53024,2.61013l0.96648,4.22332l-2.53024,-2.61019l-2.53024,2.61019l0.96648,-4.22332l-2.53024,-2.61013l0.00001,0z" stroke-opacity="null" stroke-dasharray="5,2,2,2" fill="url(#svg_105)" stroke="#000"/>
   <path stroke-width="0" id="svg_193" d="m648.047,317.82864l3.12755,0l0.96644,-4.22332l0.96644,4.22332l3.12756,0l-2.53024,2.61013l0.96648,4.22332l-2.53024,-2.61019l-2.53024,2.61019l0.96648,-4.22332l-2.53024,-2.61013l0.00001,0z" stroke-opacity="null" stroke-dasharray="5,2,2,2" fill="url(#svg_105)" stroke="#000"/>
   <path stroke-width="0" id="svg_194" d="m540.05856,204.00568l3.12755,0l0.96644,-4.22332l0.96644,4.22332l3.12756,0l-2.53024,2.61013l0.96648,4.22332l-2.53024,-2.61019l-2.53024,2.61019l0.96648,-4.22332l-2.53024,-2.61013l0.00001,0z" stroke-opacity="null" stroke-dasharray="5,2,2,2" fill="url(#svg_105)" stroke="#000"/>
   <path stroke-width="0" id="svg_195" d="m726.92664,113.33425l3.12755,0l0.96644,-4.22332l0.96644,4.22332l3.12756,0l-2.53024,2.61013l0.96648,4.22332l-2.53024,-2.61019l-2.53024,2.61019l0.96648,-4.22332l-2.53024,-2.61013l0.00001,0z" stroke-opacity="null" stroke-dasharray="5,2,2,2" fill="url(#svg_105)" stroke="#000"/>
   <path stroke-width="0" id="svg_197" d="m775.87268,326.65133l3.12755,0l0.96644,-4.22332l0.96644,4.22332l3.12756,0l-2.53024,2.61013l0.96648,4.22332l-2.53024,-2.61019l-2.53024,2.61019l0.96648,-4.22332l-2.53024,-2.61013l0.00001,0z" stroke-opacity="null" stroke-dasharray="5,2,2,2" fill="url(#svg_105)" stroke="#000"/>
   <path stroke-width="0" id="svg_199" d="m711.09642,313.86326l5.94235,0l1.83623,-7.2948l1.83623,7.2948l5.94235,0l-4.80746,4.50839l1.83632,7.29482l-4.80746,-4.50851l-4.80745,4.50851l1.83632,-7.29482l-4.80746,-4.50839l0.00003,0z" stroke-opacity="null" stroke-dasharray="5,2,2,2" fill="url(#svg_105)" stroke="#000"/>
   <path stroke-width="0" id="svg_200" d="m51.26743,111.83124l5.94235,0l1.83623,-5.75906l1.83623,5.75906l5.94235,0l-4.80746,3.55926l1.83632,5.75906l-4.80746,-3.55935l-4.80746,3.55935l1.83632,-5.75906l-4.80746,-3.55926l0.00004,0z" stroke-opacity="null" stroke-dasharray="5,2,2,2" fill="url(#svg_105)" stroke="#000"/>
   <path stroke-width="0" id="svg_202" d="m400.10527,149.07234l3.12755,0l0.96644,-4.22332l0.96644,4.22332l3.12756,0l-2.53024,2.61013l0.96648,4.22332l-2.53024,-2.61019l-2.53024,2.61019l0.96648,-4.22332l-2.53024,-2.61013l0.00001,0z" stroke-opacity="null" stroke-dasharray="5,2,2,2" fill="url(#svg_105)" stroke="#000"/>
   <path stroke-width="0" id="svg_206" d="m648.047,317.82864l3.12755,0l0.96644,-4.22332l0.96644,4.22332l3.12756,0l-2.53024,2.61013l0.96648,4.22332l-2.53024,-2.61019l-2.53024,2.61019l0.96648,-4.22332l-2.53024,-2.61013l0.00001,0z" stroke-opacity="null" stroke-dasharray="5,2,2,2" fill="url(#svg_105)" stroke="#000"/>
   <path stroke-width="0" id="svg_208" d="m726.92664,113.33425l3.12755,0l0.96644,-4.22332l0.96644,4.22332l3.12756,0l-2.53024,2.61013l0.96648,4.22332l-2.53024,-2.61019l-2.53024,2.61019l0.96648,-4.22332l-2.53024,-2.61013l0.00001,0z" stroke-opacity="null" stroke-dasharray="5,2,2,2" fill="url(#svg_105)" stroke="#000"/>
   <path stroke-width="0" id="svg_209" d="m628.13261,191.73035l2.8148,0l0.86979,-4.22332l0.8698,4.22332l2.8148,0l-2.27722,2.61013l0.86983,4.22332l-2.27722,-2.6102l-2.27721,2.6102l0.86983,-4.22332l-2.27722,-2.61013l0.00002,0z" stroke-opacity="null" stroke-dasharray="5,2,2,2" fill="url(#svg_105)" stroke="#000"/>
   <path stroke-width="0" id="svg_210" d="m112.31332,326.96261l3.12755,0l0.96644,-4.22332l0.96644,4.22332l3.12756,0l-2.53024,2.61013l0.96648,4.22332l-2.53024,-2.61019l-2.53024,2.61019l0.96648,-4.22332l-2.53024,-2.61013l0.00001,0z" stroke-opacity="null" stroke-dasharray="5,2,2,2" fill="url(#svg_105)" stroke="#000"/>
   <path stroke-width="0" id="svg_215" d="m434.11654,339.02943l3.12755,0l0.96644,-4.22332l0.96644,4.22332l3.12756,0l-2.53024,2.61013l0.96648,4.22332l-2.53024,-2.61019l-2.53024,2.61019l0.96648,-4.22332l-2.53024,-2.61013l0.00001,0z" stroke-opacity="null" stroke-dasharray="5,2,2,2" fill="url(#svg_105)" stroke="#000"/>
   <path stroke-width="0" id="svg_219" d="m522.04497,200.99021l3.12755,0l0.96644,-4.22332l0.96644,4.22332l3.12756,0l-2.53024,2.61013l0.96648,4.22332l-2.53024,-2.61019l-2.53024,2.61019l0.96648,-4.22332l-2.53024,-2.61013l0.00001,0z" stroke-opacity="null" stroke-dasharray="5,2,2,2" fill="url(#svg_105)" stroke="#000"/>
   <path stroke-width="0" id="svg_221" d="m471.78318,253.59051l3.12755,0l0.96644,-4.22332l0.96644,4.22332l3.12756,0l-2.53024,2.61013l0.96648,4.22332l-2.53024,-2.61019l-2.53024,2.61019l0.96648,-4.22332l-2.53024,-2.61013l0.00001,0z" stroke-opacity="null" stroke-dasharray="5,2,2,2" fill="url(#svg_105)" stroke="#000"/>
   <path stroke-width="0" id="svg_223" d="m311.68442,128.96229l3.12755,0l0.96644,-4.22332l0.96644,4.22332l3.12756,0l-2.53024,2.61013l0.96648,4.22332l-2.53024,-2.61019l-2.53024,2.61019l0.96648,-4.22332l-2.53024,-2.61013l0.00001,0z" stroke-opacity="null" stroke-dasharray="5,2,2,2" fill="url(#svg_105)" stroke="#000"/>
   <ellipse ry="29.32191" rx="23.88562" id="svg_300" cy="130.31733" cx="574.22977" fill-opacity="null" stroke-dasharray="5,2,2,2" stroke-width="0" fill="url(#svg_105)" stroke="#ffffff"/>
   <path d="m386.55702,218.28303c0,0 0,0 0,0c0,8.37769 0,8.37769 0,8.37769c0,0 0,0 0,0c0,0 6.82446,0 6.82446,0c0,-8.37769 0,-8.37769 0,-8.37769c0,0 0,0 0,0c0,0 0,8.37769 0,8.37769l-6.82446,0l0,0" id="svg_306" stroke-opacity="null" stroke-dasharray="5,2,2,2" stroke-width="0" fill="none" stroke="#ffffff"/>
   <ellipse ry="16.75538" id="svg_308" cy="184.77227" cx="386.55702" stroke-opacity="null" stroke-dasharray="5,2,2,2" stroke-width="0" fill="url(#svg_307)" stroke="#ffffff"/>
   <ellipse ry="4.18884" rx="3.41223" id="svg_309" cy="314.62643" cx="383.1448" stroke-opacity="null" stroke-dasharray="5,2,2,2" stroke-width="0" fill="url(#svg_307)" stroke="#ffffff"/>
   <ellipse ry="4.18884" rx="3.41223" id="svg_310" cy="38.16274" cx="178.41087" stroke-opacity="null" stroke-dasharray="5,2,2,2" stroke-width="0" fill="url(#svg_307)" stroke="#ffffff"/>
   <ellipse ry="4.18884" rx="3.41223" id="svg_311" cy="381.64792" cx="171.58642" stroke-opacity="null" stroke-dasharray="5,2,2,2" stroke-width="0" fill="url(#svg_313)" stroke="#ffffff"/>
   <ellipse ry="4.18884" id="svg_314" cy="63.29581" cx="652.71111" stroke-opacity="null" stroke-dasharray="5,2,2,2" stroke-width="0" fill="url(#svg_313)" stroke="#ffffff"/>
   <ellipse ry="8.37769" rx="6.82446" id="svg_315" cy="176.39458" cx="727.78022" stroke-opacity="null" stroke-dasharray="5,2,2,2" stroke-width="0" fill="url(#svg_313)" stroke="#ffffff"/>
  </g>
  <g id="svg_8" stroke="null">
   <g id="svg_5" transform="matrix(1.14957 0 0 1.91964 -262.597 -456.427)" stroke="null">
    <path d="m703.32121,579.01408c0.12,0 0.236,0.014 0.355,0.018a21.073,21.073 0 0 1 40.654,-7.444a16.44,16.44 0 0 1 26.451,7.469c0.253,-0.018 0.505,-0.038 0.762,-0.038a10.719,10.719 0 0 1 0,21.437l-68.222,0a10.719,10.719 0 0 1 0,-21.437l0,-0.005z" fill="#beebfa" id="svg_6" stroke="null"/>
    <path d="m667.48221,562.25708c0.233,0 0.461,0.019 0.69,0.035a14.908,14.908 0 0 1 23.989,-6.774a19.107,19.107 0 0 1 36.463,3.15a21.018,21.018 0 0 0 -24.948,20.364c-0.119,0 -0.235,-0.018 -0.355,-0.018a10.663,10.663 0 0 0 -7.073,2.679l-28.766,0a9.721,9.721 0 1 1 0,-19.441l0,0.005z" fill="#9ee2f8" id="svg_7" stroke="null"/>
   </g>
  </g>
  <g id="svg_108" stroke="null">
   <path d="m727.05239,582.39112l4.4084,0c1.64678,-4.07684 4.46118,-7.16805 7.8391,-8.45303c-0.67957,-2.22658 -2.30239,-3.79396 -4.19694,-3.79396c-0.47364,0 -0.92987,0.09844 -1.35868,0.27961c0.0023,-0.09299 0.0053,-0.18583 0.0053,-0.27961c0,-4.54772 -2.73281,-8.23516 -6.10313,-8.23516c-2.90671,0 -5.33666,2.74194 -5.95124,6.41306c-0.36508,-0.16422 -0.75459,-0.2541 -1.16035,-0.2541c-1.24851,0 -2.35067,0.84348 -3.01157,2.13095c-0.36877,-0.1283 -0.75598,-0.19781 -1.15459,-0.19781c-2.53529,0 -4.59048,2.77351 -4.59048,6.19488c0,3.42074 2.05531,6.19488 4.59048,6.19488l7.33931,0" fill="#9FDEF7" id="svg_13" stroke="null"/>
   <path d="m752.12499,578.64147c-2.35874,-3.40457 -5.71672,-5.53272 -9.4429,-5.53272c-6.15475,0 -11.30115,5.8075 -12.60291,13.5822c-0.77257,-0.34772 -1.59781,-0.539 -2.45669,-0.539c-2.64442,0 -4.97792,1.7868 -6.37751,4.5132c-0.78121,-0.2723 -1.60046,-0.41863 -2.44494,-0.41863c-5.36904,0 -9.72144,5.87328 -9.72144,13.11847c0,7.24488 4.35239,13.11894 9.72144,13.11894l10.71861,0c0.02259,-4.45923 2.70688,-8.06441 6.01623,-8.06441c0.6276,0 1.23273,0.12985 1.80155,0.37042c-0.00265,-0.12285 -0.0068,-0.24602 -0.0068,-0.37042c0,-6.03175 3.62338,-10.92143 8.09309,-10.92143c3.85398,0 7.07691,3.6369 7.892,8.50497c0.48366,-0.21787 1.00006,-0.33746 1.538,-0.33746c1.65577,0 3.11736,1.11874 3.99365,2.82638c0.48919,-0.17075 1.00213,-0.2625 1.53085,-0.2625c2.21619,0 4.15522,1.59848 5.21981,3.9868c1.54376,-2.30045 2.48423,-5.3517 2.48423,-8.6992c0,-7.16214 -4.30215,-12.967 -9.6092,-12.967c-1.00213,0 -1.9683,0.20729 -2.87674,0.5914c0.00472,-0.19641 0.01106,-0.39328 0.01106,-0.5914c0,-2.92855 -0.53483,-5.68838 -1.48026,-8.11184" fill="#BEEAFC" id="svg_14" stroke="null"/>
   <path d="m719.38592,590.27078c-0.19383,-0.01586 -0.38905,-0.02441 -0.58588,-0.02441c-5.36904,-0.00016 -9.72144,5.87328 -9.72144,13.11847c0,7.24488 4.35239,13.11894 9.72144,13.11894l10.71861,0c0.00703,-1.39927 0.27658,-2.71426 0.74491,-3.86021c-5.29979,-5.50395 -9.20447,-13.3309 -10.87765,-22.35278l0.00001,-0.00001z" fill="#AEE4FF" id="svg_15" stroke="null"/>
   <path d="m718.48382,580.36265c0,-4.25505 0.48493,-8.35677 1.38277,-12.21185c-0.96825,0.2412 -1.80305,0.99635 -2.34318,2.04822c-0.36877,-0.1283 -0.75598,-0.19781 -1.15459,-0.19781c-2.53529,0 -4.59048,2.77351 -4.59048,6.19488c0,3.42074 2.05531,6.19488 4.59048,6.19488l2.15246,0c-0.02443,-0.67211 -0.03745,-1.34811 -0.03745,-2.02831l-0.00001,-0.00001z" fill="#83D4ED" id="svg_16" stroke="null"/>
   <path d="m760.37735,607.88239c-0.52872,0 -1.04189,0.09144 -1.53085,0.2625c-0.87629,-1.70781 -2.33788,-2.82638 -3.99365,-2.82638c-0.53794,0 -1.05433,0.11959 -1.538,0.33746c-0.81521,-4.86822 -4.03802,-8.50497 -7.892,-8.50497c-4.46971,0 -8.09309,4.88968 -8.09309,10.92143c0,0.12441 0.00403,0.24757 0.0068,0.37042c-0.56883,-0.24057 -1.17395,-0.37042 -1.80155,-0.37042c-3.32295,0 -6.01693,3.63472 -6.01693,8.12008c0,4.48412 2.69409,8.11915 6.01693,8.11915l18.0154,0l3.34347,0l3.48371,0c3.36214,0 6.0878,-3.67795 6.0878,-8.21463c-0.00023,-4.53699 -2.72589,-8.21463 -6.08803,-8.21463l-0.00001,-0.00001z" fill="#E4F2F9" id="svg_17" stroke="null"/>
   <path d="m741.95181,605.7883c0,-2.93089 0.46096,-5.71622 1.28896,-8.23283c-3.40938,1.2856 -5.91125,5.5055 -5.91125,10.51664c0,0.12441 0.00403,0.24757 0.0068,0.37042c-0.56883,-0.24057 -1.17395,-0.37042 -1.80155,-0.37042c-3.32295,0 -6.01693,3.63472 -6.01693,8.12008c0,4.48412 2.69409,8.11915 6.01693,8.11915l15.28973,0c-5.23087,-3.18064 -8.87269,-10.27793 -8.87269,-18.52305l0,0.00001z" fill="#D7EDF9" id="svg_31" stroke="null"/>
   <g id="svg_48" transform="matrix(0.11524 0 0 0.155509 451.221 340.887)" stroke="null"/>
   <g id="svg_50" transform="matrix(0.11524 0 0 0.155509 451.221 340.887)" stroke="null"/>
   <g id="svg_51" transform="matrix(0.11524 0 0 0.155509 451.221 340.887)" stroke="null"/>
   <g id="svg_52" transform="matrix(0.11524 0 0 0.155509 451.221 340.887)" stroke="null"/>
   <g id="svg_53" transform="matrix(0.11524 0 0 0.155509 451.221 340.887)" stroke="null"/>
   <g id="svg_74" transform="matrix(0.11524 0 0 0.155509 451.221 340.887)" stroke="null"/>
   <g id="svg_75" transform="matrix(0.11524 0 0 0.155509 451.221 340.887)" stroke="null"/>
   <g id="svg_76" transform="matrix(0.11524 0 0 0.155509 451.221 340.887)" stroke="null"/>
   <g id="svg_77" transform="matrix(0.11524 0 0 0.155509 451.221 340.887)" stroke="null"/>
   <g id="svg_100" transform="matrix(0.11524 0 0 0.155509 451.221 340.887)" stroke="null"/>
   <g id="svg_101" transform="matrix(0.11524 0 0 0.155509 451.221 340.887)" stroke="null"/>
   <g id="svg_102" transform="matrix(0.11524 0 0 0.155509 451.221 340.887)" stroke="null"/>
   <g id="svg_103" transform="matrix(0.11524 0 0 0.155509 451.221 340.887)" stroke="null"/>
   <g id="svg_106" transform="matrix(0.11524 0 0 0.155509 451.221 340.887)" stroke="null"/>
   <g id="svg_107" transform="matrix(0.11524 0 0 0.155509 451.221 340.887)" stroke="null"/>
  </g>
  <g id="svg_114" stroke="null">
   <g id="svg_113" transform="matrix(0.715844 0 0 1.04238 -98.869 65.7515)" stroke="null">
    <path d="m386.94559,518.17276c0.12,0 0.236,0.014 0.355,0.018a21.073,21.073 0 0 1 40.654,-7.444a16.44,16.44 0 0 1 26.451,7.469c0.253,-0.018 0.505,-0.038 0.762,-0.038a10.719,10.719 0 0 1 0,21.437l-68.222,0a10.719,10.719 0 0 1 0,-21.437l0,-0.005z" fill="#beebfa" id="svg_111" stroke="null"/>
    <path d="m351.10659,501.41576c0.233,0 0.461,0.019 0.69,0.035a14.908,14.908 0 0 1 23.989,-6.774a19.107,19.107 0 0 1 36.463,3.15a21.018,21.018 0 0 0 -24.948,20.364c-0.119,0 -0.235,-0.018 -0.355,-0.018a10.663,10.663 0 0 0 -7.073,2.679l-28.766,0a9.721,9.721 0 1 1 0,-19.441l0,0.005z" fill="#9ee2f8" id="svg_112" stroke="null"/>
   </g>
  </g>
  <g id="svg_148">
   <path d="m316.82352,645.06805l11.95457,0c4.4657,-8.19264 12.09769,-14.40461 21.25784,-16.98684c-1.84284,-4.47445 -6.24354,-7.62418 -11.38112,-7.62418c-1.28439,0 -2.5216,0.19781 -3.68443,0.56188c0.00625,-0.18688 0.01437,-0.37344 0.01437,-0.56188c0,-9.1389 -7.41074,-16.54902 -16.55026,-16.54902c-7.88232,0 -14.4718,5.51009 -16.13839,12.8874c-0.99001,-0.33001 -2.04628,-0.51064 -3.14661,-0.51064c-3.38568,0 -6.37448,1.69503 -8.16669,4.28226c-1.00002,-0.25782 -2.05004,-0.39751 -3.13099,-0.39751c-6.87511,0 -12.44832,5.57353 -12.44832,12.44895c0,6.87417 5.57352,12.44895 12.44832,12.44895l19.90251,0" fill="#9FDEF7" id="svg_115"/>
   <path d="m384.81461,637.53292c-6.39635,-6.84167 -15.50243,-11.1183 -25.60697,-11.1183c-16.69027,0 -30.64612,11.6705 -34.17617,27.29419c-2.09504,-0.69876 -4.33288,-1.08314 -6.66198,-1.08314c-7.17106,0 -13.49897,3.59068 -17.29434,9.06952c-2.11847,-0.5472 -4.34007,-0.84127 -6.63011,-0.84127c-14.55961,0 -26.3623,11.80269 -26.3623,26.3623c0,14.55898 11.80269,26.36324 26.3623,26.36324l29.0664,0c0.06125,-8.96109 7.34043,-16.20589 16.31464,-16.20589c1.7019,0 3.34287,0.26094 4.88539,0.74439c-0.00719,-0.24688 -0.01844,-0.49438 -0.01844,-0.74439c0,-12.12113 9.82579,-21.94723 21.9466,-21.94723c10.45111,0 19.19094,7.30856 21.40129,17.09122c1.31158,-0.43782 2.71191,-0.67814 4.17069,-0.67814c4.49007,0 8.45357,2.24816 10.82986,5.67978c1.32658,-0.34313 2.71754,-0.52751 4.15131,-0.52751c6.00979,0 11.268,3.21224 14.15492,8.01169c4.18632,-4.62289 6.73667,-10.75455 6.73667,-17.48153c0,-14.39273 -11.66644,-26.05792 -26.05792,-26.05792c-2.71754,0 -5.33758,0.41657 -7.80106,1.18846c0.01281,-0.39469 0.03,-0.79033 0.03,-1.18846c0,-5.88509 -1.45034,-11.43112 -4.01413,-16.3012" fill="#BEEAFC" id="svg_116"/>
   <path d="m296.03382,660.90267c-0.52564,-0.03187 -1.05502,-0.04906 -1.58878,-0.04906c-14.55961,-0.00031 -26.3623,11.80269 -26.3623,26.3623c0,14.55898 11.80269,26.36323 26.3623,26.36323l29.0664,0c0.01907,-2.81192 0.75002,-5.45446 2.02004,-7.75731c-14.3718,-11.06049 -24.9604,-26.78918 -29.49766,-44.91916z" fill="#AEE4FF" id="svg_117"/>
   <path d="m293.58753,640.99173c0,-8.55076 1.31502,-16.79339 3.74974,-24.54039c-2.62566,0.48469 -4.88945,2.00222 -6.35416,4.116c-1.00002,-0.25782 -2.05003,-0.39751 -3.13099,-0.39751c-6.87511,0 -12.44832,5.57353 -12.44832,12.44895c0,6.87418 5.57353,12.44895 12.44832,12.44895l5.83697,0c-0.06625,-1.35064 -0.10156,-2.7091 -0.10156,-4.076z" fill="#83D4ED" id="svg_118"/>
   <path d="m407.1931,696.29418c-1.43378,0 -2.82536,0.18375 -4.15132,0.52751c-2.37629,-3.43193 -6.33979,-5.67978 -10.82986,-5.67978c-1.45877,0 -2.85911,0.24032 -4.17069,0.67813c-2.21066,-9.78296 -10.95018,-17.09121 -21.40128,-17.09121c-12.12082,0 -21.9466,9.8261 -21.9466,21.94723c0,0.25 0.01093,0.49751 0.01843,0.74439c-1.54252,-0.48345 -3.18348,-0.74439 -4.88539,-0.74439c-9.01108,0 -16.31651,7.30418 -16.31651,16.31776c0,9.01108 7.30574,16.31589 16.31651,16.31589l48.8536,0l9.06671,0l9.44702,0c9.11734,0 16.5087,-7.39106 16.5087,-16.50777c-0.00062,-9.11733 -7.39199,-16.50776 -16.50932,-16.50776z" fill="#E4F2F9" id="svg_120"/>
   <path d="m357.2273,692.08599c0,-5.88979 1.25002,-11.48706 3.49537,-16.54433c-9.24547,2.58348 -16.02995,11.06361 -16.02995,21.13377c0,0.25001 0.01094,0.49751 0.01844,0.74439c-1.54253,-0.48344 -3.18349,-0.74439 -4.88539,-0.74439c-9.01108,0 -16.31651,7.30418 -16.31651,16.31777c0,9.01108 7.30574,16.31588 16.31651,16.31588l41.46222,0c-14.18491,-6.39166 -24.06069,-20.65408 -24.06069,-37.22309z" fill="#D7EDF9" id="svg_121"/>
   <g id="svg_122" transform="matrix(0.312505 0 0 0.312505 0 0)"/>
   <g id="svg_123" transform="matrix(0.312505 0 0 0.312505 0 0)"/>
   <g id="svg_124" transform="matrix(0.312505 0 0 0.312505 0 0)"/>
   <g id="svg_125" transform="matrix(0.312505 0 0 0.312505 0 0)"/>
   <g id="svg_126" transform="matrix(0.312505 0 0 0.312505 0 0)"/>
   <g id="svg_127" transform="matrix(0.312505 0 0 0.312505 0 0)"/>
   <g id="svg_129" transform="matrix(0.312505 0 0 0.312505 0 0)"/>
   <g id="svg_130" transform="matrix(0.312505 0 0 0.312505 0 0)"/>
   <g id="svg_131" transform="matrix(0.312505 0 0 0.312505 0 0)"/>
   <g id="svg_134" transform="matrix(0.312505 0 0 0.312505 0 0)"/>
   <g id="svg_136" transform="matrix(0.312505 0 0 0.312505 0 0)"/>
   <g id="svg_138" transform="matrix(0.312505 0 0 0.312505 0 0)"/>
   <g id="svg_139" transform="matrix(0.312505 0 0 0.312505 0 0)"/>
   <g id="svg_140" transform="matrix(0.312505 0 0 0.312505 0 0)"/>
   <g id="svg_147" transform="matrix(0.312505 0 0 0.312505 0 0)"/>
  </g>
  <g id="svg_152" stroke="null">
   <g id="svg_151" transform="matrix(1.35841 0 0 2.20036 -395.75 -632.151)" stroke="null">
    <path d="m616.32029,566.36303c0.12,0 0.236,0.014 0.355,0.018a21.073,21.073 0 0 1 40.654,-7.444a16.44,16.44 0 0 1 26.451,7.469c0.253,-0.018 0.505,-0.038 0.762,-0.038a10.719,10.719 0 0 1 0,21.437l-68.222,0a10.719,10.719 0 0 1 0,-21.437l0,-0.005z" fill="#beebfa" id="svg_149" stroke="null"/>
    <path d="m580.48129,549.60603c0.233,0 0.461,0.019 0.69,0.035a14.908,14.908 0 0 1 23.989,-6.774a19.107,19.107 0 0 1 36.463,3.15a21.018,21.018 0 0 0 -24.948,20.364c-0.119,0 -0.235,-0.018 -0.355,-0.018a10.663,10.663 0 0 0 -7.073,2.679l-28.766,0a9.721,9.721 0 1 1 0,-19.441l0,0.005z" fill="#9ee2f8" id="svg_150" stroke="null"/>
   </g>
  </g>
  <g id="svg_174">
   <path d="m28.74547,628.06856l11.95457,0c4.4657,-8.19264 12.09769,-14.40461 21.25784,-16.98684c-1.84284,-4.47445 -6.24354,-7.62418 -11.38112,-7.62418c-1.28439,0 -2.5216,0.19781 -3.68443,0.56188c0.00625,-0.18688 0.01437,-0.37344 0.01437,-0.56188c0,-9.1389 -7.41074,-16.54902 -16.55026,-16.54902c-7.88232,0 -14.4718,5.51009 -16.13839,12.8874c-0.99001,-0.33001 -2.04628,-0.51064 -3.14661,-0.51064c-3.38568,0 -6.37448,1.69503 -8.16669,4.28226c-1.00002,-0.25782 -2.05004,-0.39751 -3.13099,-0.39751c-6.87511,0 -12.44832,5.57353 -12.44832,12.44895c0,6.87417 5.57352,12.44895 12.44832,12.44895l19.90251,0" fill="#9FDEF7" id="svg_153"/>
   <path d="m96.73656,620.53343c-6.39635,-6.84167 -15.50243,-11.1183 -25.60697,-11.1183c-16.69027,0 -30.64612,11.6705 -34.17617,27.29419c-2.09504,-0.69876 -4.33288,-1.08314 -6.66198,-1.08314c-7.17106,0 -13.49897,3.59068 -17.29434,9.06952c-2.11847,-0.5472 -4.34007,-0.84127 -6.63011,-0.84127c-14.55961,0 -26.3623,11.80269 -26.3623,26.3623c0,14.55898 11.80269,26.36324 26.3623,26.36324l29.0664,0c0.06125,-8.96109 7.34043,-16.20589 16.31464,-16.20589c1.7019,0 3.34287,0.26094 4.88539,0.74439c-0.00719,-0.24688 -0.01844,-0.49438 -0.01844,-0.74439c0,-12.12113 9.82579,-21.94723 21.9466,-21.94723c10.45111,0 19.19094,7.30856 21.40129,17.09122c1.31158,-0.43782 2.71191,-0.67814 4.17069,-0.67814c4.49007,0 8.45357,2.24816 10.82986,5.67978c1.32658,-0.34313 2.71754,-0.52751 4.15131,-0.52751c6.00979,0 11.268,3.21224 14.15492,8.01169c4.18632,-4.62289 6.73667,-10.75455 6.73667,-17.48153c0,-14.39273 -11.66644,-26.05792 -26.05792,-26.05792c-2.71754,0 -5.33758,0.41657 -7.80106,1.18846c0.01281,-0.39469 0.03,-0.79033 0.03,-1.18846c0,-5.88509 -1.45034,-11.43112 -4.01413,-16.3012" fill="#BEEAFC" id="svg_154"/>
   <path d="m7.95577,643.90318c-0.52564,-0.03187 -1.05502,-0.04906 -1.58878,-0.04906c-14.55961,-0.00031 -26.3623,11.80269 -26.3623,26.3623c0,14.55898 11.80269,26.36323 26.3623,26.36323l29.0664,0c0.01907,-2.81192 0.75002,-5.45446 2.02004,-7.75731c-14.3718,-11.06049 -24.9604,-26.78918 -29.49766,-44.91916z" fill="#AEE4FF" id="svg_155"/>
   <path d="m5.50948,623.99224c0,-8.55076 1.31502,-16.79339 3.74974,-24.54039c-2.62566,0.48469 -4.88945,2.00222 -6.35416,4.116c-1.00002,-0.25782 -2.05003,-0.39751 -3.13099,-0.39751c-6.87511,0 -12.44832,5.57353 -12.44832,12.44895c0,6.87418 5.57353,12.44895 12.44832,12.44895l5.83697,0c-0.06625,-1.35064 -0.10156,-2.7091 -0.10156,-4.076z" fill="#83D4ED" id="svg_156"/>
   <path d="m119.11505,679.29469c-1.43378,0 -2.82536,0.18375 -4.15132,0.52751c-2.37629,-3.43193 -6.33979,-5.67978 -10.82986,-5.67978c-1.45877,0 -2.85911,0.24032 -4.17069,0.67813c-2.21066,-9.78296 -10.95018,-17.09121 -21.40128,-17.09121c-12.12082,0 -21.9466,9.8261 -21.9466,21.94723c0,0.25 0.01093,0.49751 0.01843,0.74439c-1.54252,-0.48345 -3.18348,-0.74439 -4.88539,-0.74439c-9.01108,0 -16.31651,7.30418 -16.31651,16.31776c0,9.01108 7.30574,16.31589 16.31651,16.31589l48.8536,0l9.06671,0l9.44702,0c9.11734,0 16.5087,-7.39106 16.5087,-16.50777c-0.00062,-9.11733 -7.39199,-16.50776 -16.50932,-16.50776z" fill="#E4F2F9" id="svg_157"/>
   <path d="m69.14925,675.0865c0,-5.88979 1.25002,-11.48706 3.49537,-16.54433c-9.24547,2.58348 -16.02995,11.06361 -16.02995,21.13377c0,0.25001 0.01094,0.49751 0.01844,0.74439c-1.54253,-0.48344 -3.18349,-0.74439 -4.88539,-0.74439c-9.01108,0 -16.31651,7.30418 -16.31651,16.31777c0,9.01108 7.30574,16.31588 16.31651,16.31588l41.46222,0c-14.18491,-6.39166 -24.06069,-20.65408 -24.06069,-37.22309z" fill="#D7EDF9" id="svg_158"/>
   <g id="svg_159" transform="matrix(0.312505 0 0 0.312505 0 0)"/>
   <g id="svg_160" transform="matrix(0.312505 0 0 0.312505 0 0)"/>
   <g id="svg_161" transform="matrix(0.312505 0 0 0.312505 0 0)"/>
   <g id="svg_162" transform="matrix(0.312505 0 0 0.312505 0 0)"/>
   <g id="svg_163" transform="matrix(0.312505 0 0 0.312505 0 0)"/>
   <g id="svg_164" transform="matrix(0.312505 0 0 0.312505 0 0)"/>
   <g id="svg_165" transform="matrix(0.312505 0 0 0.312505 0 0)"/>
   <g id="svg_166" transform="matrix(0.312505 0 0 0.312505 0 0)"/>
   <g id="svg_167" transform="matrix(0.312505 0 0 0.312505 0 0)"/>
   <g id="svg_168" transform="matrix(0.312505 0 0 0.312505 0 0)"/>
   <g id="svg_169" transform="matrix(0.312505 0 0 0.312505 0 0)"/>
   <g id="svg_170" transform="matrix(0.312505 0 0 0.312505 0 0)"/>
   <g id="svg_171" transform="matrix(0.312505 0 0 0.312505 0 0)"/>
   <g id="svg_172" transform="matrix(0.312505 0 0 0.312505 0 0)"/>
   <g id="svg_173" transform="matrix(0.312505 0 0 0.312505 0 0)"/>
  </g>
  <g id="svg_9" stroke="null">
   <g id="svg_4" transform="matrix(1.35841 0 0 2.20036 -395.75 -632.151)" stroke="null">
    <path d="m809.92146,602.72179c0.12,0 0.236,0.014 0.355,0.018a21.073,21.073 0 0 1 40.654,-7.444a16.44,16.44 0 0 1 26.451,7.469c0.253,-0.018 0.505,-0.038 0.762,-0.038a10.719,10.719 0 0 1 0,21.437l-68.222,0a10.719,10.719 0 0 1 0,-21.437l0,-0.005z" fill="#beebfa" id="svg_2" stroke="null"/>
    <path d="m774.08246,585.96479c0.233,0 0.461,0.019 0.69,0.035a14.908,14.908 0 0 1 23.989,-6.774a19.107,19.107 0 0 1 36.463,3.15a21.018,21.018 0 0 0 -24.948,20.364c-0.119,0 -0.235,-0.018 -0.355,-0.018a10.663,10.663 0 0 0 -7.073,2.679l-28.766,0a9.721,9.721 0 1 1 0,-19.441l0,0.005z" fill="#9ee2f8" id="svg_3" stroke="null"/>
   </g>
  </g>
  <g stroke="null" id="svg_217">
   <g stroke="null" transform="matrix(0.0857938 0 0 0.0777983 382.039 1127.05)" id="svg_176">
    <g stroke="null" id="svg_177">
     <g stroke="null" id="svg_178">
      <g stroke="null" id="svg_179">
       <g stroke="null" id="svg_180">
        <path stroke="null" id="svg_181" fill="#27b2ff" d="m2755.21884,-6883.23421l-144.794,131.39c-20.153,18.288 -35.931,40.878 -46.161,66.096c-12.9,31.797 -6.441,68.174 16.619,93.586c17.457,19.238 42.425,29.921 68.395,29.264c64.489,-1.632 117.839,-51.732 122.267,-116.089c2.718,-39.504 -8.273,-79.894 -33.326,-113.441l32.916,-29.869c17.379,-15.77 18.683,-42.643 2.913,-60.022c-4.948,-5.452 -13.377,-5.862 -18.829,-0.915z"/>
        <g stroke="null" id="svg_182">
         <path stroke="null" id="svg_183" fill="#008cff" d="m2786.58484,-6760.94121l-87.383,79.293c-3.997,3.627 -10.178,3.327 -13.805,-0.67l-4.014,-4.424c-14.873,-16.39 -13.643,-41.734 2.747,-56.607l86.54,-78.528c5.452,-4.947 13.881,-4.538 18.828,0.914c15.77,17.379 14.466,44.252 -2.913,60.022z"/>
        </g>
       </g>
      </g>
      <path stroke="null" id="svg_184" fill="#5cceff" d="m2779.16884,-6787.68221l-31.476,28.562c-4.185,3.797 -10.656,3.483 -14.453,-0.701c-3.797,-4.185 -3.483,-10.656 0.702,-14.453l31.476,-28.562c4.185,-3.797 10.656,-3.483 14.453,0.701c3.797,4.185 3.483,10.656 -0.702,14.453z"/>
     </g>
     <path stroke="null" id="svg_185" fill="#008cff" d="m2790.93684,-6429.06621l-123.203,-92.708l-12.705,41.658l64.031,73.845c20.053,23.126 56.326,21.87 74.73,-2.589c4.792,-6.368 3.514,-15.414 -2.853,-20.206z"/>
     <path stroke="null" id="svg_186" fill="#27b2ff" d="m2819.18984,-6489.48321l-138.971,-28.009c-4.655,23.099 7.454,46.311 29.062,55.709l54.907,23.88c28.07,12.208 60.249,-4.579 66.296,-34.585c1.574,-7.812 -3.482,-15.421 -11.294,-16.995z"/>
     <path stroke="null" id="svg_187" fill="#ffaf40" d="m2512.34584,-6703.27621c-2.418,-24.049 -22.718,-42.823 -47.404,-42.823c-22.079,0 -40.649,15.018 -46.056,35.395c-0.994,3.745 1.783,7.428 5.657,7.428l87.803,0z"/>
     <path stroke="null" id="svg_188" fill="#5cceff" d="m2660.78984,-6659.96621c-18.792,-18.792 -32.723,-157.369 -130.375,-157.369c-44.567,0 -80.979,34.867 -80.979,79.204c0,14.542 3.924,28.164 10.766,39.873c6.311,10.8 6.582,23.975 0.931,35.135c-23.168,45.754 -7.593,112.413 41.403,161.409c57.704,57.704 139.908,69.055 183.608,25.355s32.349,-125.904 -25.354,-183.607z"/>
     <path stroke="null" id="svg_190" fill="#73e1ff" d="m2554.69284,-6553.93221c-0.185,-4.547 -1.707,-8.925 -4.317,-12.653c-4.42,-6.313 -8.047,-13.23 -10.733,-20.619c-3.626,-9.959 -5.386,-20.287 -5.386,-30.521c0,-22.928 8.832,-45.421 25.399,-62.395c3.85,-3.95 7.872,-7.709 12.05,-11.273c6.489,-5.534 8.744,-14.544 5.935,-22.597c-14.195,-40.702 -42.015,-75.01 -78.004,-97.471c-29.403,11.72 -50.202,39.817 -50.202,73.329c0,14.541 3.929,28.163 10.764,39.874c6.314,10.801 6.589,23.979 0.937,35.131c-23.165,45.762 -7.592,112.417 41.398,161.416c1.411,1.401 2.831,2.783 4.269,4.137c16.529,-11.39 31.133,-25.369 43.24,-41.345c3.229,-4.262 4.874,-9.517 4.657,-14.859l-0.007,-0.154z"/>
     <path stroke="null" id="svg_191" fill="#5cceff" d="m2824.67884,-6546.34921l-141.754,1.77c0.294,23.561 17.004,43.717 40.103,48.372l58.695,11.83c30.006,6.048 57.947,-17.117 57.565,-47.724c-0.1,-7.968 -6.641,-14.347 -14.609,-14.248z"/>
     <g stroke="null" id="svg_192">
      <g stroke="null" id="svg_196">
       <g stroke="null" id="svg_198">
        <path stroke="null" id="svg_201" fill="#73e1ff" d="m2842.64084,-6796.19421l-183.73,66.872c-25.573,9.308 -48.722,24.254 -67.729,43.729c-23.968,24.557 -31.745,60.675 -20.008,92.92c8.885,24.411 27.959,43.743 52.248,52.956c60.316,22.878 128.652,-3.325 157.089,-61.228c17.456,-35.543 22.556,-77.089 12.051,-117.619l41.768,-15.202c22.052,-8.026 33.423,-32.41 25.396,-54.462c-2.519,-6.917 -10.168,-10.483 -17.085,-7.966z"/>
        <g stroke="null" id="svg_203">
         <path stroke="null" id="svg_204" fill="#27b2ff" d="m2793.09684,-6599.95121l-93.838,34.154c-5.072,1.846 -10.68,-0.769 -12.526,-5.841l-2.043,-5.613c-7.57,-20.798 3.154,-43.794 23.951,-51.364l92.768,-33.765c6.917,-2.518 14.566,1.049 17.084,7.966c8.027,22.053 -3.343,46.436 -25.396,54.463z"/>
         <path stroke="null" id="svg_205" fill="#5cceff" d="m2825.42784,-6671.12221l-110.88,40.357c-5.072,1.846 -10.68,-0.769 -12.526,-5.841l-2.043,-5.613c-7.57,-20.798 3.154,-43.794 23.951,-51.364l109.811,-39.968c6.917,-2.518 14.566,1.049 17.084,7.966c8.025,22.053 -3.345,46.437 -25.397,54.463z"/>
        </g>
       </g>
       <path stroke="null" id="svg_207" fill="#b6f0ff" d="m2591.17984,-6685.59121c-11.985,12.277 -19.921,27.448 -23.391,43.573c-0.29,1.346 -0.549,2.698 -0.776,4.056c-1.55,9.265 7.402,16.789 16.23,13.576l0.065,-0.024c4.154,-1.512 7.143,-5.152 7.875,-9.511c2.155,-12.835 8.115,-25.004 17.483,-34.602c12.275,-12.582 26.763,-23.079 42.532,-30.919c5.563,-2.766 8.153,-9.271 6.029,-15.109c-2.488,-6.836 -10.372,-10.025 -16.889,-6.793c-18.241,9.044 -34.874,21.111 -49.158,35.753z"/>
      </g>
      <circle stroke="null" id="svg_211" r="12.275" fill="#b6f0ff" cy="-6724.23721" cx="2680.83084"/>
      <path stroke="null" id="svg_212" fill="#9edbff" d="m2828.67484,-6698.68121l-39.939,14.537c-5.31,1.933 -11.182,-0.805 -13.115,-6.115c-1.933,-5.31 0.805,-11.182 6.115,-13.115l39.939,-14.537c5.31,-1.933 11.182,0.805 13.115,6.115c1.933,5.311 -0.805,11.182 -6.115,13.115z"/>
      <path stroke="null" id="svg_213" fill="#5cceff" d="m2794.76984,-6626.70321l-39.939,14.537c-5.31,1.933 -11.182,-0.805 -13.115,-6.115c-1.933,-5.31 0.805,-11.182 6.115,-13.115l39.939,-14.537c5.31,-1.933 11.182,0.805 13.115,6.115c1.933,5.31 -0.805,11.182 -6.115,13.115z"/>
     </g>
     <ellipse stroke="null" id="svg_214" ry="12.351" rx="10.254" fill="#0465a0" cy="-6750.92321" cx="2488.65184"/>
    </g>
    <path stroke="null" id="svg_216" fill="#b6f0ff" d="m2470.13184,-6652.40221l-0.21,-0.095c-6.366,-2.867 -13.813,0.623 -15.634,7.363c-4.155,15.38 -4.758,32.26 -1.962,49.545c1.282,7.926 10.127,12.107 17.04,8.023c0.069,-0.041 0.137,-0.081 0.206,-0.122c4.068,-2.405 6.184,-7.062 5.438,-11.729c-2.257,-14.118 -1.741,-27.648 1.476,-39.651c1.446,-5.396 -1.259,-11.039 -6.354,-13.334z"/>
   </g>
  </g>
  <rect stroke="#000" id="svg_10" height="145" width="839.00002" y="1366.8" x="-15.09999" opacity="NaN" fill="#85c10d"/>
 </g>
</svg>