<svg width="100" height="100" xmlns="http://www.w3.org/2000/svg">
 <!-- Created with Method Draw - http://github.com/duopixel/Method-Draw/ -->

 <g id="Layer_1">
  <title>Layer 1</title>
  <!-- Created with Method Draw - http://github.com/duopixel/Method-Draw/ -->
  <g stroke="null" id="svg_136">
   <g stroke="null" id="svg_69">
    <title stroke="null">Layer 1</title>
    <g stroke="null" id="svg_116">
     <g stroke="null" id="svg_117">
      <path stroke="null" d="m364.47856,273.8359l0,-5.24855c0,-2.10389 -1.83586,-3.80956 -4.10034,-3.80956s-4.10034,1.70567 -4.10034,3.80956l0,31.24623c0,10.64288 9.31952,19.30175 20.77505,19.30175l1.0732,0c2.26448,0 4.10034,-1.70567 4.10034,-3.80956l0,-22.39231c-0.00027,-9.68821 -7.72203,-17.73196 -17.74791,-19.09756z" fill="#24b383" id="svg_134"/>
      <path stroke="null" d="m467.78634,268.58735c0,-2.10389 -1.83586,-3.80956 -4.10034,-3.80956s-4.10034,1.70567 -4.10034,3.80956l0,5.24855c-10.0256,1.36585 -17.74764,9.40935 -17.74764,19.0973l0,22.39231c0,2.10389 1.83586,3.80956 4.10034,3.80956l1.0732,0c11.45525,0 20.77505,-8.65887 20.77505,-19.30175l-0.00027,-31.24598z" fill="#009985" id="svg_133"/>
      <g stroke="null" id="svg_131">
       <path stroke="null" d="m473.37866,393.04401s-0.00027,0 -0.00055,0l-122.71332,-0.01625c-2.26448,-0.00025 -4.09979,-1.70592 -4.09979,-3.80956l0,-8.52121c0,-19.66543 17.2504,-35.66455 38.4538,-35.66455l54.00639,0c21.2034,0 38.45353,15.99912 38.45353,35.66455l0,8.53747c0,1.01055 -0.43218,1.97945 -1.20113,2.69386s-1.81153,1.11569 -2.89894,1.11569z" fill="#00dd7b" id="svg_132"/>
      </g>
      <path stroke="null" d="m439.0252,345.03243l-27.0032,0l0,48.00345l61.35611,0.00813l0.00055,0c1.08741,0 2.13026,-0.40127 2.89921,-1.11569s1.20113,-1.68357 1.20113,-2.69386l0,-8.53747c0,-19.66543 -17.2504,-35.66455 -38.4538,-35.66455z" fill="#24b383" id="svg_130"/>
      <path stroke="null" d="m412.022,318.23856c-9.04371,0 -16.40136,6.83587 -16.40136,15.23797l0,16.38134c0,8.40236 7.35765,15.23822 16.40136,15.23822s16.40136,-6.83587 16.40136,-15.23822l0,-16.38134c0,-8.4021 -7.35765,-15.23797 -16.40136,-15.23797z" fill="#24b383" id="svg_129"/>
      <path stroke="null" d="m412.022,318.23856l0,46.85754c9.04371,0 16.40136,-6.83587 16.40136,-15.23822l0,-16.38134c0,-8.4021 -7.35765,-15.23797 -16.40136,-15.23797z" fill="#009985" id="svg_128"/>
      <g stroke="null" id="svg_126">
       <path stroke="null" d="m412.022,345.47688c-20.95137,0 -37.99648,-15.83632 -37.99648,-35.30188l0,-11.87312c0,-19.46556 17.04511,-35.30188 37.99648,-35.30188s37.99648,15.83632 37.99648,35.30188l0,11.87312c0,19.46556 -17.04511,35.30188 -37.99648,35.30188z" fill="#00dd7b" id="svg_127"/>
      </g>
      <path stroke="null" d="m412.022,263l0,82.47688c20.95137,0 37.99648,-15.83632 37.99648,-35.30188l0,-11.87312c0,-19.46556 -17.04511,-35.30188 -37.99648,-35.30188z" fill="#24b383" id="svg_125"/>
      <ellipse stroke="null" cx="389.1473" cy="304.2166" fill="#00429d" rx="17.4453" ry="9.85126" id="svg_124"/>
      <ellipse stroke="null" cx="434.8967" cy="304.2166" fill="#00347b" rx="17.4453" ry="9.85126" id="svg_123"/>
      <g stroke="null" clip-rule="evenodd" fill-rule="evenodd" id="svg_118">
       <circle stroke="null" cx="412.022" cy="270.61911" fill="#00ff8d" r="3.80956" id="svg_122"/>
       <circle stroke="null" cx="403.2265" cy="281.79381" fill="#00ff8d" r="3.80956" id="svg_121"/>
       <circle stroke="null" cx="420.81777" cy="281.79381" fill="#00dd7b" r="3.80956" id="svg_120"/>
       <path stroke="null" d="m412.022,266.80956l-0.00027,7.61911l0.00027,0c2.25847,0 4.10034,-1.71125 4.10034,-3.80956s-1.84187,-3.80956 -4.10034,-3.80956z" fill="#00dd7b" id="svg_119"/>
      </g>
     </g>
    </g>
    <g stroke="null" id="svg_112">
     <g stroke="null" id="svg_113" transform="matrix(0.0732444 0 0 0.0737441 326.78 184.679)">
      <g stroke="null" id="svg_114">
       <path stroke="null" d="m452.7511,2785.1778c-133.766,0 -165,-122.753 -165,-256.802c0,-131.479 33.505,-255.198 165,-255.198c132.126,0 165,124.914 165,256.16c0,131.81 -33.248,255.84 -165,255.84zm0,-482c-90.841,0 -135,73.663 -135,225.198c0,114.299 21.007,226.802 135,226.802c90.841,0 135,-73.873 135,-225.84c0,-152.182 -44.159,-226.16 -135,-226.16zm0,406.291c-37.609,0 -54.239,-26.997 -63.661,-62.628c-5.848,-22.041 -8.692,-60.479 -8.692,-117.502c0,-56.998 3.149,-96.732 9.628,-121.475c10.046,-39.111 31.156,-58.977 62.725,-58.977c46.96,0 59.091,45.724 63.658,62.937c5.852,22.129 8.695,60.564 8.695,117.514c0,56.923 -3.148,96.55 -9.624,121.14c-10.098,39.143 -31.203,58.991 -62.729,58.991zm0,-330.582c-12.021,0 -25.423,4.337 -33.686,36.507c-5.757,21.987 -8.667,60.3 -8.667,113.943c0,53.635 2.588,90.584 7.692,109.821c8.916,33.716 19.46,40.31 34.661,40.31c12.006,0 25.397,-4.339 33.689,-36.518l0.021,-0.082c5.735,-21.75 8.643,-59.947 8.643,-113.531c0,-53.571 -2.589,-90.524 -7.695,-109.832c-8.973,-33.821 -19.914,-40.618 -34.658,-40.618z" id="svg_115"/>
      </g>
     </g>
    </g>
    <g stroke="null" id="svg_109">
     <g stroke="null" id="svg_110" transform="matrix(0.0593696 0 0 0.0558867 342.137 197.48)">
      <path stroke="null" d="m813.56689,3341.56214l0,-512l-99.902,0l-3.56,9.932c-9.419,26.294 -27.202,49.746 -52.837,69.697c-26.528,20.684 -51.211,34.849 -73.359,42.1l-10.342,3.383l0,114.771l19.702,-6.519c36.387,-12.012 69.448,-29.268 98.672,-51.445l0,330.081l121.626,0z" id="svg_111"/>
     </g>
    </g>
    <g stroke="null" id="svg_90">
     <g stroke="null" id="svg_106" transform="matrix(0.124128 0 0 0.11604 341.943 190.706)">
      <g stroke="null" id="svg_107">
       <path stroke="null" d="m633.39348,1500.72195c-4.267,-14.827 -10.24,-26.88 -17.92,-36.053c-7.787,-9.173 -17.067,-15.893 -27.947,-19.947c-10.879,-4.053 -23.039,-6.08 -36.373,-6.08c-13.227,0 -25.28,2.027 -36.16,6.08c-10.88,4.053 -20.16,10.773 -27.84,19.947c-7.787,9.173 -13.76,21.227 -17.92,36.053c-4.16,14.827 -6.293,32.96 -6.293,54.293l0,43.52c0,21.333 2.133,39.467 6.4,54.4c4.16,14.933 10.24,27.093 18.027,36.373c7.787,9.28 17.067,16.107 27.947,20.267s22.933,6.293 36.16,6.293c13.333,0 25.387,-2.133 36.16,-6.293c10.773,-4.16 20.053,-10.987 27.733,-20.267c7.68,-9.387 13.653,-21.44 17.813,-36.373c4.16,-14.933 6.293,-33.067 6.293,-54.4l0.213,0l0,-43.52c0.001,-21.333 -2.133,-39.466 -6.293,-54.293zm-38.933,104.32c0,13.547 -0.96,25.173 -2.773,34.667c-1.813,9.493 -4.587,17.173 -8.213,23.147c-3.627,5.973 -8.107,10.347 -13.44,13.013c-5.333,2.667 -11.52,4.053 -18.56,4.053c-6.933,0 -13.12,-1.387 -18.56,-4.053c-5.44,-2.773 -10.027,-7.04 -13.76,-13.013c-3.733,-5.867 -6.507,-13.653 -8.533,-23.147c-2.027,-9.493 -2.987,-21.12 -2.987,-34.667l0,-56.96c0,-13.653 0.96,-25.28 2.88,-34.56c1.92,-9.28 4.693,-16.853 8.427,-22.613c3.733,-5.653 8.213,-9.813 13.653,-12.373c5.333,-2.56 11.52,-3.84 18.453,-3.84s13.12,1.28 18.453,3.84c5.44,2.453 9.92,6.613 13.653,12.373c3.733,5.76 6.507,13.333 8.427,22.613c1.92,9.28 2.88,20.8 2.88,34.56l0,56.96z" id="svg_108"/>
      </g>
     </g>
     <g stroke="null" id="svg_105" transform="matrix(0.124128 0 0 0.11604 341.943 190.706)"/>
     <g stroke="null" id="svg_104" transform="matrix(0.124128 0 0 0.11604 341.943 190.706)"/>
     <g stroke="null" id="svg_103" transform="matrix(0.124128 0 0 0.11604 341.943 190.706)"/>
     <g stroke="null" id="svg_102" transform="matrix(0.124128 0 0 0.11604 341.943 190.706)"/>
     <g stroke="null" id="svg_101" transform="matrix(0.124128 0 0 0.11604 341.943 190.706)"/>
     <g stroke="null" id="svg_100" transform="matrix(0.124128 0 0 0.11604 341.943 190.706)"/>
     <g stroke="null" id="svg_99" transform="matrix(0.124128 0 0 0.11604 341.943 190.706)"/>
     <g stroke="null" id="svg_98" transform="matrix(0.124128 0 0 0.11604 341.943 190.706)"/>
     <g stroke="null" id="svg_97" transform="matrix(0.124128 0 0 0.11604 341.943 190.706)"/>
     <g stroke="null" id="svg_96" transform="matrix(0.124128 0 0 0.11604 341.943 190.706)"/>
     <g stroke="null" id="svg_95" transform="matrix(0.124128 0 0 0.11604 341.943 190.706)"/>
     <g stroke="null" id="svg_94" transform="matrix(0.124128 0 0 0.11604 341.943 190.706)"/>
     <g stroke="null" id="svg_93" transform="matrix(0.124128 0 0 0.11604 341.943 190.706)"/>
     <g stroke="null" id="svg_92" transform="matrix(0.124128 0 0 0.11604 341.943 190.706)"/>
     <g stroke="null" id="svg_91" transform="matrix(0.124128 0 0 0.11604 341.943 190.706)"/>
    </g>
    <g stroke="null" id="svg_73">
     <polygon stroke="null" points="434.12420654296875,366.5230407714844 427.1473388671875,366.5230407714844 427.1473388671875,361.2334899902344 434.17254638671875,354.5986328125 442.0704345703125,354.5986328125 442.0704345703125,383.2402038574219 449.0955810546875,383.2402038574219 449.0955810546875,390.3238220214844 427.1473388671875,390.3238220214844 427.1473388671875,383.2402038574219 434.17254638671875,383.2402038574219 " fill="#E21B1B" id="svg_89"/>
     <g stroke="null" id="svg_88" transform="matrix(0.0719558 0 0 0.0697758 343.709 183.935)"/>
     <g stroke="null" id="svg_87" transform="matrix(0.0719558 0 0 0.0697758 343.709 183.935)"/>
     <g stroke="null" id="svg_86" transform="matrix(0.0719558 0 0 0.0697758 343.709 183.935)"/>
     <g stroke="null" id="svg_85" transform="matrix(0.0719558 0 0 0.0697758 343.709 183.935)"/>
     <g stroke="null" id="svg_84" transform="matrix(0.0719558 0 0 0.0697758 343.709 183.935)"/>
     <g stroke="null" id="svg_83" transform="matrix(0.0719558 0 0 0.0697758 343.709 183.935)"/>
     <g stroke="null" id="svg_82" transform="matrix(0.0719558 0 0 0.0697758 343.709 183.935)"/>
     <g stroke="null" id="svg_81" transform="matrix(0.0719558 0 0 0.0697758 343.709 183.935)"/>
     <g stroke="null" id="svg_80" transform="matrix(0.0719558 0 0 0.0697758 343.709 183.935)"/>
     <g stroke="null" id="svg_79" transform="matrix(0.0719558 0 0 0.0697758 343.709 183.935)"/>
     <g stroke="null" id="svg_78" transform="matrix(0.0719558 0 0 0.0697758 343.709 183.935)"/>
     <g stroke="null" id="svg_77" transform="matrix(0.0719558 0 0 0.0697758 343.709 183.935)"/>
     <g stroke="null" id="svg_76" transform="matrix(0.0719558 0 0 0.0697758 343.709 183.935)"/>
     <g stroke="null" id="svg_75" transform="matrix(0.0719558 0 0 0.0697758 343.709 183.935)"/>
     <g stroke="null" id="svg_74" transform="matrix(0.0719558 0 0 0.0697758 343.709 183.935)"/>
    </g>
    <g stroke="null" id="svg_70">
     <g stroke="null" id="svg_71" transform="matrix(0.0639254 0 0 0.0638233 342.656 190.889)">
      <path stroke="null" d="m1949.07333,3081.0317l0,-512l-99.902,0l-3.56,9.932c-9.419,26.294 -27.202,49.746 -52.837,69.697c-26.528,20.684 -51.211,34.849 -73.359,42.1l-10.342,3.383l0,114.771l19.702,-6.519c36.387,-12.012 69.448,-29.268 98.672,-51.445l0,330.081l121.626,0z" id="svg_72"/>
     </g>
    </g>
   </g>
  </g>
  <!-- Created with Method Draw - http://github.com/duopixel/Method-Draw/ -->
  <g stroke="null" id="svg_276">
   <g stroke="null" id="svg_207">
    <title stroke="null">Layer 1</title>
    <!-- Created with Method Draw - http://github.com/duopixel/Method-Draw/ -->
    <g stroke="null" id="svg_208">
     <g stroke="null" id="svg_209">
      <title stroke="null">Layer 1</title>
      <g stroke="null" id="svg_256">
       <g stroke="null" id="svg_257">
        <path stroke="null" id="svg_274" fill="#24b383" d="m16.44727,10.66263l0,-4.07445c0,-1.63325 -1.31317,-2.95736 -2.93293,-2.95736s-2.93293,1.32411 -2.93293,2.95736l0,24.25643c0,8.26206 6.66615,14.98394 14.86015,14.98394l0.76765,0c1.61976,0 2.93293,-1.32411 2.93293,-2.95736l0,-17.38314c-0.00019,-7.52095 -5.52348,-13.76531 -12.69488,-14.82543z"/>
        <path stroke="null" id="svg_273" fill="#009985" d="m90.34213,6.58818c0,-1.63325 -1.31317,-2.95736 -2.93293,-2.95736s-2.93293,1.32411 -2.93293,2.95736l0,4.07445c-7.1712,1.06031 -12.69468,7.30447 -12.69468,14.82522l0,17.38314c0,1.63325 1.31317,2.95736 2.93293,2.95736l0.76765,0c8.19381,0 14.86015,-6.72188 14.86015,-14.98394l-0.00019,-24.25624l0,0.00001z"/>
        <g stroke="null" id="svg_271">
         <path stroke="null" id="svg_272" fill="#00dd7b" d="m94.34225,103.20382s-0.00019,0 -0.00039,0l-87.77542,-0.01261c-1.61976,-0.00019 -2.93253,-1.3243 -2.93253,-2.95736l0,-6.61501c0,-15.26626 12.33901,-27.68637 27.50556,-27.68637l38.63015,0c15.16655,0 27.50537,12.42011 27.50537,27.68637l0,6.62763c0,0.78449 -0.30913,1.53665 -0.85915,2.09124s-1.29577,0.86611 -2.07358,0.86611l0.00001,0z"/>
        </g>
        <path stroke="null" id="svg_270" fill="#24b383" d="m69.76962,65.93246l-19.31508,0l0,37.26505l43.88732,0.00631l0.00039,0c0.77781,0 1.52375,-0.31151 2.07377,-0.86611s0.85915,-1.30695 0.85915,-2.09124l0,-6.62763c0,-15.26626 -12.33901,-27.68637 -27.50556,-27.68637l0,-0.00001z"/>
        <path stroke="null" id="svg_269" fill="#24b383" d="m50.45454,45.13239c-6.46886,0 -11.7317,5.30668 -11.7317,11.82923l0,12.71683c0,6.52275 5.26284,11.82942 11.7317,11.82942s11.7317,-5.30668 11.7317,-11.82942l0,-12.71683c0,-6.52255 -5.26284,-11.82923 -11.7317,-11.82923z"/>
        <path stroke="null" id="svg_268" fill="#009985" d="m50.45454,45.13239l0,36.37548c6.46886,0 11.7317,-5.30668 11.7317,-11.82942l0,-12.71683c0,-6.52255 -5.26284,-11.82923 -11.7317,-11.82923l0,-0.00001z"/>
        <g stroke="null" id="svg_266">
         <path stroke="null" id="svg_267" fill="#00dd7b" d="m50.45454,66.27749c-14.98627,0 -27.17844,-12.29373 -27.17844,-27.40483l0,-9.2171c0,-15.1111 12.19217,-27.40483 27.17844,-27.40483s27.17844,12.29373 27.17844,27.40483l0,9.2171c0,15.1111 -12.19217,27.40483 -27.17844,27.40483z"/>
        </g>
        <path stroke="null" id="svg_265" fill="#24b383" d="m50.45454,2.25073l0,64.02676c14.98627,0 27.17844,-12.29373 27.17844,-27.40483l0,-9.2171c0,-15.1111 -12.19217,-27.40483 -27.17844,-27.40483z"/>
        <ellipse stroke="null" id="svg_264" ry="7.64753" rx="12.47842" fill="#00429d" cy="34.24715" cx="34.09253"/>
        <ellipse stroke="null" id="svg_263" ry="7.64753" rx="12.47842" fill="#00347b" cy="34.24715" cx="66.81655"/>
        <g stroke="null" id="svg_258" fill-rule="evenodd" clip-rule="evenodd">
         <circle stroke="null" id="svg_262" r="2.72493" fill="#00ff8d" cy="8.16544" cx="50.45454"/>
         <circle stroke="null" id="svg_261" r="2.72493" fill="#00ff8d" cy="16.84035" cx="44.16322"/>
         <circle stroke="null" id="svg_260" r="2.72493" fill="#00dd7b" cy="16.84035" cx="56.74606"/>
         <path stroke="null" id="svg_259" fill="#00dd7b" d="m50.45454,5.20809l-0.00019,5.91471l0.00019,0c1.61546,0 2.93293,-1.32844 2.93293,-2.95736s-1.31747,-2.95736 -2.93293,-2.95736l0,0.00001z"/>
        </g>
       </g>
      </g>
      <g stroke="null" id="svg_252">
       <g stroke="null" transform="matrix(0.0523909 0 0 0.0572475 229.341 169.097)" id="svg_253">
        <g stroke="null" id="svg_254">
         <path stroke="null" id="svg_255" d="m-4125.51105,-1191.35356c-133.766,0 -165,-122.753 -165,-256.802c0,-131.479 33.505,-255.198 165,-255.198c132.126,0 165,124.914 165,256.16c0,131.81 -33.248,255.84 -165,255.84zm0,-482c-90.841,0 -135,73.663 -135,225.198c0,114.299 21.007,226.802 135,226.802c90.841,0 135,-73.873 135,-225.84c0,-152.182 -44.159,-226.16 -135,-226.16zm0,406.291c-37.609,0 -54.239,-26.997 -63.661,-62.628c-5.848,-22.041 -8.692,-60.479 -8.692,-117.502c0,-56.998 3.149,-96.732 9.628,-121.475c10.046,-39.111 31.156,-58.977 62.725,-58.977c46.96,0 59.091,45.724 63.658,62.937c5.852,22.129 8.695,60.564 8.695,117.514c0,56.923 -3.148,96.55 -9.624,121.14c-10.098,39.143 -31.203,58.991 -62.729,58.991zm0,-330.582c-12.021,0 -25.423,4.337 -33.686,36.507c-5.757,21.987 -8.667,60.3 -8.667,113.943c0,53.635 2.588,90.584 7.692,109.821c8.916,33.716 19.46,40.31 34.661,40.31c12.006,0 25.397,-4.339 33.689,-36.518l0.021,-0.082c5.735,-21.75 8.643,-59.947 8.643,-113.531c0,-53.571 -2.589,-90.524 -7.695,-109.832c-8.973,-33.821 -19.914,-40.618 -34.658,-40.618z"/>
        </g>
       </g>
      </g>
      <g stroke="null" id="svg_249">
       <g stroke="null" transform="matrix(0.0424664 0 0 0.0433848 240.326 179.034)" id="svg_250">
        <path stroke="null" id="svg_251" d="m-4834.64744,-1905.58471l0,-512l-99.902,0l-3.56,9.932c-9.419,26.294 -27.202,49.746 -52.837,69.697c-26.528,20.684 -51.211,34.849 -73.359,42.1l-10.342,3.383l0,114.771l19.702,-6.519c36.387,-12.012 69.448,-29.268 98.672,-51.445l0,330.081l121.626,0z"/>
       </g>
      </g>
      <g stroke="null" id="svg_230">
       <g stroke="null" transform="matrix(0.0887873 0 0 0.0900818 240.187 173.775)" id="svg_246">
        <g stroke="null" id="svg_247">
         <path stroke="null" id="svg_248" d="m-2068.10753,-1026.38633c-4.267,-14.827 -10.24,-26.88 -17.92,-36.053c-7.787,-9.173 -17.067,-15.893 -27.947,-19.947c-10.879,-4.053 -23.039,-6.08 -36.373,-6.08c-13.227,0 -25.28,2.027 -36.16,6.08c-10.88,4.053 -20.16,10.773 -27.84,19.947c-7.787,9.173 -13.76,21.227 -17.92,36.053c-4.16,14.827 -6.293,32.96 -6.293,54.293l0,43.52c0,21.333 2.133,39.467 6.4,54.4c4.16,14.933 10.24,27.093 18.027,36.373c7.787,9.28 17.067,16.107 27.947,20.267s22.933,6.293 36.16,6.293c13.333,0 25.387,-2.133 36.16,-6.293c10.773,-4.16 20.053,-10.987 27.733,-20.267c7.68,-9.387 13.653,-21.44 17.813,-36.373c4.16,-14.933 6.293,-33.067 6.293,-54.4l0.213,0l0,-43.52c0.001,-21.333 -2.133,-39.466 -6.293,-54.293zm-38.933,104.32c0,13.547 -0.96,25.173 -2.773,34.667c-1.813,9.493 -4.587,17.173 -8.213,23.147c-3.627,5.973 -8.107,10.347 -13.44,13.013c-5.333,2.667 -11.52,4.053 -18.56,4.053c-6.933,0 -13.12,-1.387 -18.56,-4.053c-5.44,-2.773 -10.027,-7.04 -13.76,-13.013c-3.733,-5.867 -6.507,-13.653 -8.533,-23.147c-2.027,-9.493 -2.987,-21.12 -2.987,-34.667l0,-56.96c0,-13.653 0.96,-25.28 2.88,-34.56c1.92,-9.28 4.693,-16.853 8.427,-22.613c3.733,-5.653 8.213,-9.813 13.653,-12.373c5.333,-2.56 11.52,-3.84 18.453,-3.84s13.12,1.28 18.453,3.84c5.44,2.453 9.92,6.613 13.653,12.373c3.733,5.76 6.507,13.333 8.427,22.613c1.92,9.28 2.88,20.8 2.88,34.56l0,56.96z"/>
        </g>
       </g>
       <g stroke="null" transform="matrix(0.0887873 0 0 0.0900818 240.187 173.775)" id="svg_245"/>
       <g stroke="null" transform="matrix(0.0887873 0 0 0.0900818 240.187 173.775)" id="svg_244"/>
       <g stroke="null" transform="matrix(0.0887873 0 0 0.0900818 240.187 173.775)" id="svg_243"/>
       <g stroke="null" transform="matrix(0.0887873 0 0 0.0900818 240.187 173.775)" id="svg_242"/>
       <g stroke="null" transform="matrix(0.0887873 0 0 0.0900818 240.187 173.775)" id="svg_241"/>
       <g stroke="null" transform="matrix(0.0887873 0 0 0.0900818 240.187 173.775)" id="svg_240"/>
       <g stroke="null" transform="matrix(0.0887873 0 0 0.0900818 240.187 173.775)" id="svg_239"/>
       <g stroke="null" transform="matrix(0.0887873 0 0 0.0900818 240.187 173.775)" id="svg_238"/>
       <g stroke="null" transform="matrix(0.0887873 0 0 0.0900818 240.187 173.775)" id="svg_237"/>
       <g stroke="null" transform="matrix(0.0887873 0 0 0.0900818 240.187 173.775)" id="svg_236"/>
       <g stroke="null" transform="matrix(0.0887873 0 0 0.0900818 240.187 173.775)" id="svg_235"/>
       <g stroke="null" transform="matrix(0.0887873 0 0 0.0900818 240.187 173.775)" id="svg_234"/>
       <g stroke="null" transform="matrix(0.0887873 0 0 0.0900818 240.187 173.775)" id="svg_233"/>
       <g stroke="null" transform="matrix(0.0887873 0 0 0.0900818 240.187 173.775)" id="svg_232"/>
       <g stroke="null" transform="matrix(0.0887873 0 0 0.0900818 240.187 173.775)" id="svg_231"/>
      </g>
      <g stroke="null" id="svg_213">
       <polygon stroke="null" id="svg_229" fill="#E21B1B" points="66.26399803161621,82.61561012268066 61.27352333068848,82.61561012268066 61.27352333068848,78.50933265686035 66.29857444763184,73.35869789123535 71.94784355163574,73.35869789123535 71.94784355163574,95.5931339263916 76.97284889221191,95.5931339263916 76.97284889221191,101.09214210510254 61.27352333068848,101.09214210510254 61.27352333068848,95.5931339263916 66.29857444763184,95.5931339263916 "/>
       <g stroke="null" transform="matrix(0.0514692 0 0 0.0541669 241.45 168.519)" id="svg_228"/>
       <g stroke="null" transform="matrix(0.0514692 0 0 0.0541669 241.45 168.519)" id="svg_227"/>
       <g stroke="null" transform="matrix(0.0514692 0 0 0.0541669 241.45 168.519)" id="svg_226"/>
       <g stroke="null" transform="matrix(0.0514692 0 0 0.0541669 241.45 168.519)" id="svg_225"/>
       <g stroke="null" transform="matrix(0.0514692 0 0 0.0541669 241.45 168.519)" id="svg_224"/>
       <g stroke="null" transform="matrix(0.0514692 0 0 0.0541669 241.45 168.519)" id="svg_223"/>
       <g stroke="null" transform="matrix(0.0514692 0 0 0.0541669 241.45 168.519)" id="svg_222"/>
       <g stroke="null" transform="matrix(0.0514692 0 0 0.0541669 241.45 168.519)" id="svg_221"/>
       <g stroke="null" transform="matrix(0.0514692 0 0 0.0541669 241.45 168.519)" id="svg_220"/>
       <g stroke="null" transform="matrix(0.0514692 0 0 0.0541669 241.45 168.519)" id="svg_219"/>
       <g stroke="null" transform="matrix(0.0514692 0 0 0.0541669 241.45 168.519)" id="svg_218"/>
       <g stroke="null" transform="matrix(0.0514692 0 0 0.0541669 241.45 168.519)" id="svg_217"/>
       <g stroke="null" transform="matrix(0.0514692 0 0 0.0541669 241.45 168.519)" id="svg_216"/>
       <g stroke="null" transform="matrix(0.0514692 0 0 0.0541669 241.45 168.519)" id="svg_215"/>
       <g stroke="null" transform="matrix(0.0514692 0 0 0.0541669 241.45 168.519)" id="svg_214"/>
      </g>
      <g stroke="null" id="svg_210">
       <g stroke="null" transform="matrix(0.0457251 0 0 0.049546 240.697 173.918)" id="svg_211">
        <path stroke="null" id="svg_212" d="m-3296.60651,-1513.61904l0,-512l-99.902,0l-3.56,9.932c-9.419,26.294 -27.202,49.746 -52.837,69.697c-26.528,20.684 -51.211,34.849 -73.359,42.1l-10.342,3.383l0,114.771l19.702,-6.519c36.387,-12.012 69.448,-29.268 98.672,-51.445l0,330.081l121.626,0z"/>
       </g>
      </g>
     </g>
    </g>
   </g>
  </g>
 </g>
</svg>